<svg width="415" height="579" viewBox="0 0 415 579" fill="none" xmlns="http://www.w3.org/2000/svg">
<path d="M0 7.50019H6.63478V0H9.90409V7.50019H16.5389V10.7214H9.90409V18.2216H6.63478V10.7214H0V7.50019Z" fill="black"/>
<path d="M79.7345 7.50019H86.3693V0H89.6386V7.50019H96.2734V10.7214H89.6386V18.2216H86.3693V10.7214H79.7345V7.50019Z" fill="black"/>
<path d="M159.469 7.50019H166.104V0H169.373V7.50019H176.008V10.7214H169.373V18.2216H166.104V10.7214H159.469V7.50019Z" fill="black"/>
<path d="M239.204 7.50019H245.838V0H249.108V7.50019H255.742V10.7214H249.108V18.2216H245.838V10.7214H239.204V7.50019Z" fill="black"/>
<path d="M0 87.5002H6.63478V80H9.90409V87.5002H16.5389V90.7214H9.90409V98.2216H6.63478V90.7214H0V87.5002Z" fill="black"/>
<path d="M79.7345 87.5002H86.3693V80H89.6386V87.5002H96.2734V90.7214H89.6386V98.2216H86.3693V90.7214H79.7345V87.5002Z" fill="black"/>
<path d="M159.469 87.5002H166.104V80H169.373V87.5002H176.008V90.7214H169.373V98.2216H166.104V90.7214H159.469V87.5002Z" fill="black"/>
<path d="M239.204 87.5002H245.838V80H249.108V87.5002H255.742V90.7214H249.108V98.2216H245.838V90.7214H239.204V87.5002Z" fill="black"/>
<path d="M0 167.5H6.63478V160H9.90409V167.5H16.5389V170.721H9.90409V178.222H6.63478V170.721H0V167.5Z" fill="black"/>
<path d="M79.7345 167.5H86.3693V160H89.6386V167.5H96.2734V170.721H89.6386V178.222H86.3693V170.721H79.7345V167.5Z" fill="black"/>
<path d="M159.469 167.5H166.104V160H169.373V167.5H176.008V170.721H169.373V178.222H166.104V170.721H159.469V167.5Z" fill="black"/>
<path d="M239.204 167.5H245.838V160H249.108V167.5H255.742V170.721H249.108V178.222H245.838V170.721H239.204V167.5Z" fill="black"/>
<path d="M0 247.5H6.63478V240H9.90409V247.5H16.5389V250.721H9.90409V258.222H6.63478V250.721H0V247.5Z" fill="black"/>
<path d="M79.7345 247.5H86.3693V240H89.6386V247.5H96.2734V250.721H89.6386V258.222H86.3693V250.721H79.7345V247.5Z" fill="black"/>
<path d="M159.469 247.5H166.104V240H169.373V247.5H176.008V250.721H169.373V258.222H166.104V250.721H159.469V247.5Z" fill="black"/>
<path d="M239.204 247.5H245.838V240H249.108V247.5H255.742V250.721H249.108V258.222H245.838V250.721H239.204V247.5Z" fill="black"/>
<path d="M0 327.5H6.63478V320H9.90409V327.5H16.5389V330.721H9.90409V338.222H6.63478V330.721H0V327.5Z" fill="black"/>
<path d="M79.7345 327.5H86.3693V320H89.6386V327.5H96.2734V330.721H89.6386V338.222H86.3693V330.721H79.7345V327.5Z" fill="black"/>
<path d="M159.469 327.5H166.104V320H169.373V327.5H176.008V330.721H169.373V338.222H166.104V330.721H159.469V327.5Z" fill="black"/>
<path d="M239.204 327.5H245.838V320H249.108V327.5H255.742V330.721H249.108V338.222H245.838V330.721H239.204V327.5Z" fill="black"/>
<path d="M239 7.50019H245.635V0H248.904V7.50019H255.539V10.7214H248.904V18.2216H245.635V10.7214H239V7.50019Z" fill="black"/>
<path d="M318.735 7.50019H325.369V0H328.639V7.50019H335.273V10.7214H328.639V18.2216H325.369V10.7214H318.735V7.50019Z" fill="black"/>
<path d="M398.469 7.50019H405.104V0H408.373V7.50019H415.008V10.7214H408.373V18.2216H405.104V10.7214H398.469V7.50019Z" fill="black"/>
<path d="M239 87.5002H245.635V80H248.904V87.5002H255.539V90.7214H248.904V98.2216H245.635V90.7214H239V87.5002Z" fill="black"/>
<path d="M318.735 87.5002H325.369V80H328.639V87.5002H335.273V90.7214H328.639V98.2216H325.369V90.7214H318.735V87.5002Z" fill="black"/>
<path d="M398.469 87.5002H405.104V80H408.373V87.5002H415.008V90.7214H408.373V98.2216H405.104V90.7214H398.469V87.5002Z" fill="black"/>
<path d="M239 167.5H245.635V160H248.904V167.5H255.539V170.721H248.904V178.222H245.635V170.721H239V167.5Z" fill="black"/>
<path d="M318.735 167.5H325.369V160H328.639V167.5H335.273V170.721H328.639V178.222H325.369V170.721H318.735V167.5Z" fill="black"/>
<path d="M398.469 167.5H405.104V160H408.373V167.5H415.008V170.721H408.373V178.222H405.104V170.721H398.469V167.5Z" fill="black"/>
<path d="M239 247.5H245.635V240H248.904V247.5H255.539V250.721H248.904V258.222H245.635V250.721H239V247.5Z" fill="black"/>
<path d="M318.735 247.5H325.369V240H328.639V247.5H335.273V250.721H328.639V258.222H325.369V250.721H318.735V247.5Z" fill="black"/>
<path d="M398.469 247.5H405.104V240H408.373V247.5H415.008V250.721H408.373V258.222H405.104V250.721H398.469V247.5Z" fill="black"/>
<path d="M239 327.5H245.635V320H248.904V327.5H255.539V330.721H248.904V338.222H245.635V330.721H239V327.5Z" fill="black"/>
<path d="M318.735 327.5H325.369V320H328.639V327.5H335.273V330.721H328.639V338.222H325.369V330.721H318.735V327.5Z" fill="black"/>
<path d="M398.469 327.5H405.104V320H408.373V327.5H415.008V330.721H408.373V338.222H405.104V330.721H398.469V327.5Z" fill="black"/>
<path d="M0 327.5H6.63478V320H9.90409V327.5H16.5389V330.721H9.90409V338.222H6.63478V330.721H0V327.5Z" fill="black"/>
<path d="M79.7345 327.5H86.3693V320H89.6386V327.5H96.2734V330.721H89.6386V338.222H86.3693V330.721H79.7345V327.5Z" fill="black"/>
<path d="M159.469 327.5H166.104V320H169.373V327.5H176.008V330.721H169.373V338.222H166.104V330.721H159.469V327.5Z" fill="black"/>
<path d="M239.204 327.5H245.838V320H249.108V327.5H255.742V330.721H249.108V338.222H245.838V330.721H239.204V327.5Z" fill="black"/>
<path d="M0 407.5H6.63478V400H9.90409V407.5H16.5389V410.721H9.90409V418.222H6.63478V410.721H0V407.5Z" fill="black"/>
<path d="M79.7345 407.5H86.3693V400H89.6386V407.5H96.2734V410.721H89.6386V418.222H86.3693V410.721H79.7345V407.5Z" fill="black"/>
<path d="M159.469 407.5H166.104V400H169.373V407.5H176.008V410.721H169.373V418.222H166.104V410.721H159.469V407.5Z" fill="black"/>
<path d="M239.204 407.5H245.838V400H249.108V407.5H255.742V410.721H249.108V418.222H245.838V410.721H239.204V407.5Z" fill="black"/>
<path d="M0 487.5H6.63478V480H9.90409V487.5H16.5389V490.721H9.90409V498.222H6.63478V490.721H0V487.5Z" fill="black"/>
<path d="M79.7345 487.5H86.3693V480H89.6386V487.5H96.2734V490.721H89.6386V498.222H86.3693V490.721H79.7345V487.5Z" fill="black"/>
<path d="M159.469 487.5H166.104V480H169.373V487.5H176.008V490.721H169.373V498.222H166.104V490.721H159.469V487.5Z" fill="black"/>
<path d="M239.204 487.5H245.838V480H249.108V487.5H255.742V490.721H249.108V498.222H245.838V490.721H239.204V487.5Z" fill="black"/>
<path d="M0 567.5H6.63478V560H9.90409V567.5H16.5389V570.721H9.90409V578.222H6.63478V570.721H0V567.5Z" fill="black"/>
<path d="M79.7345 567.5H86.3693V560H89.6386V567.5H96.2734V570.721H89.6386V578.222H86.3693V570.721H79.7345V567.5Z" fill="black"/>
<path d="M159.469 567.5H166.104V560H169.373V567.5H176.008V570.721H169.373V578.222H166.104V570.721H159.469V567.5Z" fill="black"/>
<path d="M239.204 567.5H245.838V560H249.108V567.5H255.742V570.721H249.108V578.222H245.838V570.721H239.204V567.5Z" fill="black"/>
<path d="M239 327.5H245.635V320H248.904V327.5H255.539V330.721H248.904V338.222H245.635V330.721H239V327.5Z" fill="black"/>
<path d="M318.735 327.5H325.369V320H328.639V327.5H335.273V330.721H328.639V338.222H325.369V330.721H318.735V327.5Z" fill="black"/>
<path d="M398.469 327.5H405.104V320H408.373V327.5H415.008V330.721H408.373V338.222H405.104V330.721H398.469V327.5Z" fill="black"/>
<path d="M239 407.5H245.635V400H248.904V407.5H255.539V410.721H248.904V418.222H245.635V410.721H239V407.5Z" fill="black"/>
<path d="M318.735 407.5H325.369V400H328.639V407.5H335.273V410.721H328.639V418.222H325.369V410.721H318.735V407.5Z" fill="black"/>
<path d="M398.469 407.5H405.104V400H408.373V407.5H415.008V410.721H408.373V418.222H405.104V410.721H398.469V407.5Z" fill="black"/>
<path d="M239 487.5H245.635V480H248.904V487.5H255.539V490.721H248.904V498.222H245.635V490.721H239V487.5Z" fill="black"/>
<path d="M318.735 487.5H325.369V480H328.639V487.5H335.273V490.721H328.639V498.222H325.369V490.721H318.735V487.5Z" fill="black"/>
<path d="M398.469 487.5H405.104V480H408.373V487.5H415.008V490.721H408.373V498.222H405.104V490.721H398.469V487.5Z" fill="black"/>
<path d="M239 567.5H245.635V560H248.904V567.5H255.539V570.721H248.904V578.222H245.635V570.721H239V567.5Z" fill="black"/>
<path d="M318.735 567.5H325.369V560H328.639V567.5H335.273V570.721H328.639V578.222H325.369V570.721H318.735V567.5Z" fill="black"/>
<path d="M398.469 567.5H405.104V560H408.373V567.5H415.008V570.721H408.373V578.222H405.104V570.721H398.469V567.5Z" fill="black"/>
</svg>
