<svg width="276" height="30" viewBox="0 0 276 30" fill="none" xmlns="http://www.w3.org/2000/svg">
<g clip-path="url(#clip0_3533_22)">
<path d="M264 27C270.627 27 276 21.6274 276 15C276 8.37259 270.627 3 264 3C257.373 3 252 8.37258 252 15C252 21.6274 257.373 27 264 27Z" fill="black"/>
<path d="M0 15L192.286 15C192.666 15 193.043 14.939 193.404 14.8193L220.92 5.69012C222.195 5.26708 223.6 5.59971 224.55 6.54964L231.96 13.9598C232.626 14.6258 233.529 15 234.471 15L255 15" stroke="black" stroke-width="1.18382"/>
<path d="M183 3.21623L183 26.3655C183 27.8205 181.821 29 180.366 29L136.019 29C134.564 29 133.384 27.8205 133.384 26.3655L133.384 23.4138C133.384 21.9588 134.564 20.7793 136.019 20.7793L142.605 20.7793C144.06 20.7793 145.239 19.5999 145.239 18.1449L145.239 12.8759C145.239 11.421 144.06 10.2415 142.605 10.2415L136.019 10.2415C134.564 10.2415 133.384 9.06197 133.384 7.607L133.384 3.21621C133.384 1.76124 134.564 0.581744 136.019 0.581744L180.366 0.581756C181.821 0.581756 183 1.76125 183 3.21623Z" fill="black"/>
</g>
<defs>
<clipPath id="clip0_3533_22">
<rect width="276" height="30" fill="white"/>
</clipPath>
</defs>
</svg>
