<svg width="276" height="30" viewBox="0 0 276 30" fill="none" xmlns="http://www.w3.org/2000/svg">
<g clip-path="url(#clip0_3533_18)">
<path d="M264 27C270.627 27 276 21.6274 276 15C276 8.37259 270.627 3 264 3C257.373 3 252 8.37258 252 15C252 21.6274 257.373 27 264 27Z" fill="black"/>
<path d="M0 15L192.286 15C192.666 15 193.043 14.939 193.404 14.8193L220.92 5.69012C222.195 5.26708 223.6 5.59971 224.55 6.54964L231.96 13.9598C232.626 14.6258 233.529 15 234.471 15L255 15" stroke="black" stroke-width="1.18382"/>
<path d="M214 3.21623L214 26.3655C214 27.8205 212.821 29 211.366 29L167.019 29C165.564 29 164.384 27.8205 164.384 26.3655L164.384 22.4138C164.384 20.9588 163.205 19.7794 161.75 19.7794L155.164 19.7794C153.709 19.7794 152.529 18.5999 152.529 17.1449L152.529 11.8759C152.529 10.421 153.709 9.24147 155.164 9.24147L161.75 9.24147C163.205 9.24147 164.384 8.06198 164.384 6.60701L164.384 3.21622C164.384 1.76125 165.564 0.581752 167.019 0.581752L211.366 0.581756C212.821 0.581756 214 1.76125 214 3.21623Z" fill="black"/>
</g>
<defs>
<clipPath id="clip0_3533_18">
<rect width="276" height="30" fill="white"/>
</clipPath>
</defs>
</svg>
