<svg width="1486" height="338" viewBox="0 0 1486 338" fill="none" xmlns="http://www.w3.org/2000/svg">
<path d="M431.517 317.82L275.5 202.82L8 317.82H431.517Z" fill="black"/>
<path d="M818.947 20H431.517L710 129.381L818.947 20Z" fill="black"/>
<path d="M1466 20H1253.99L1379 129.381L1466 105.169V20Z" fill="black"/>
<path d="M431.517 20V317.82M431.517 20H818.947M431.517 20L710 129.381L818.947 20M431.517 317.82L275.5 202.82L8 317.82H431.517ZM818.947 317.82L923.698 244.043V105.169L818.947 20M1253.99 20H1466V105.169L1379 129.381L1253.99 20ZM1253.99 20V317.82" stroke="black" stroke-width="40"/>
<rect x="8" y="57" width="113" height="44.9937" rx="22.4969" fill="black"/>
<rect x="516" y="250" width="113" height="44.9937" rx="22.4969" fill="black"/>
<rect x="1035" y="57" width="113" height="44.9937" rx="22.4969" fill="black"/>
<path d="M1311 272.497C1311 260.072 1321.07 250 1333.5 250H1401.5C1413.93 250 1424 260.072 1424 272.497V272.497C1424 284.922 1413.93 294.994 1401.5 294.994H1333.5C1321.07 294.994 1311 284.922 1311 272.497V272.497Z" fill="black"/>
</svg>
