<svg width="4984" height="289" viewBox="0 0 4984 289" fill="none" xmlns="http://www.w3.org/2000/svg">
<rect width="4984" height="289" fill="white"/>
<mask id="mask0_3615_642" style="mask-type:alpha" maskUnits="userSpaceOnUse" x="4" y="0" width="4980" height="289">
<rect x="4.17633" width="4979.82" height="289" fill="white"/>
</mask>
<g mask="url(#mask0_3615_642)">
<mask id="path-3-inside-1_3615_642" fill="white">
<path fill-rule="evenodd" clip-rule="evenodd" d="M547.095 103.572L699.113 103.572V116.936L755.075 116.936V128.63H853.636V91.8787H835.622V-56.7978L547.095 -56.7978V103.572ZM813.543 -205.474L714.983 -205.474V-217.168L659.02 -217.168L659.02 -253.919L788.293 -253.919V-242.226L813.543 -242.226V-205.474ZM816.049 -131.971L674.89 -131.971V-168.723L816.049 -168.723V-131.971ZM677.396 -83.5261H719.159V-120.278H677.396V-83.5261ZM273.965 78.5143V171.228H113.595V44.2686H236.379V-70.9972H396.749V-14.0002L486.197 -14.0002V-2.30661H511.448V34.4448H412.887V22.7512H396.749V78.5143L273.965 78.5143ZM-35.0809 -72.6678L-35.0809 25.8929H-46.7746V81.8553L-83.526 81.8553L-83.526 -47.4169H-71.8324L-71.8324 -72.6678H-35.0809ZM38.422 -75.1736L38.422 65.9854H1.67053L1.67054 -75.1736H38.422ZM86.867 63.4796V21.7166H50.1156V63.4796H86.867ZM245 343.491H533.526V183.121L245 183.121V343.491ZM875.714 437.676V326.587L1008.99 326.587V191.274L848.624 191.274V277.306H587.188V437.676H875.714ZM1140 150V364H1218V150H1140ZM1084.17 307.375V166.216H1120.92V307.375H1084.17ZM1078 79.9999V122H1140V79.9999H1078ZM717.489 250.578H759.252V213.827H717.489V250.578ZM1521.84 51.7861L1810.37 51.7861V-85.3527L1521.84 -85.3526V51.7861ZM1689.73 -212.492L1788.29 -212.492V-243.919L1763.04 -243.919V-253.919L1633.77 -253.919V-222.491L1689.73 -222.491V-212.492ZM1649.64 -149.636L1790.8 -149.636V-181.064L1649.64 -181.064V-149.636ZM1693.91 -108.209H1652.14V-139.637L1693.91 -139.637V-108.209ZM1061.62 21.7165V63.4795H1024.86V21.7165H1061.62ZM1013.17 65.9853V-75.1737H976.419V65.9853H1013.17ZM939.668 -72.6679V25.8928H927.974V81.8552H891.223V-47.417H902.916V-72.6679H939.668ZM1261 362H1518V74.0001L1371.5 74.0001V52.6215H1450.01V15.8701H1424.76V4.17639H1371.5V-70.9972H1211.13V78.5144H1261L1261 362ZM2449.34 361.668H2160.82V304.87H2132.42V206.309H2144.11V150.346L2180.86 150.346V201.298L2449.34 201.298V361.668ZM2427.27 52.6215H2328.71V40.9278L2272.74 40.9279V4.17642L2402.02 4.17639V15.8701H2427.27V52.6215ZM2429.77 126.124H2288.61V89.3729H2429.77V126.124ZM2291.12 174.569H2332.88V137.818H2291.12V174.569ZM1823.37 38.422V91.8788H1729.82V128.63H1823.37V165.382H1689.73V191H1618L1618 277.307H1561.93V437.677L1850.46 437.676V386H1857V326.587H1917.76V162.876H1957.66V126.124H1917.76V38.422H1823.37ZM2058.92 166.217V307.375H2095.67V166.217H2058.92ZM2010.47 210.485V168.722H2047.22V210.485H2010.47ZM2068.94 -28.3991V91.8784H2175.02V-28.3991H2068.94Z"/>
</mask>
<path fill-rule="evenodd" clip-rule="evenodd" d="M547.095 103.572L699.113 103.572V116.936L755.075 116.936V128.63H853.636V91.8787H835.622V-56.7978L547.095 -56.7978V103.572ZM813.543 -205.474L714.983 -205.474V-217.168L659.02 -217.168L659.02 -253.919L788.293 -253.919V-242.226L813.543 -242.226V-205.474ZM816.049 -131.971L674.89 -131.971V-168.723L816.049 -168.723V-131.971ZM677.396 -83.5261H719.159V-120.278H677.396V-83.5261ZM273.965 78.5143V171.228H113.595V44.2686H236.379V-70.9972H396.749V-14.0002L486.197 -14.0002V-2.30661H511.448V34.4448H412.887V22.7512H396.749V78.5143L273.965 78.5143ZM-35.0809 -72.6678L-35.0809 25.8929H-46.7746V81.8553L-83.526 81.8553L-83.526 -47.4169H-71.8324L-71.8324 -72.6678H-35.0809ZM38.422 -75.1736L38.422 65.9854H1.67053L1.67054 -75.1736H38.422ZM86.867 63.4796V21.7166H50.1156V63.4796H86.867ZM245 343.491H533.526V183.121L245 183.121V343.491ZM875.714 437.676V326.587L1008.99 326.587V191.274L848.624 191.274V277.306H587.188V437.676H875.714ZM1140 150V364H1218V150H1140ZM1084.17 307.375V166.216H1120.92V307.375H1084.17ZM1078 79.9999V122H1140V79.9999H1078ZM717.489 250.578H759.252V213.827H717.489V250.578ZM1521.84 51.7861L1810.37 51.7861V-85.3527L1521.84 -85.3526V51.7861ZM1689.73 -212.492L1788.29 -212.492V-243.919L1763.04 -243.919V-253.919L1633.77 -253.919V-222.491L1689.73 -222.491V-212.492ZM1649.64 -149.636L1790.8 -149.636V-181.064L1649.64 -181.064V-149.636ZM1693.91 -108.209H1652.14V-139.637L1693.91 -139.637V-108.209ZM1061.62 21.7165V63.4795H1024.86V21.7165H1061.62ZM1013.17 65.9853V-75.1737H976.419V65.9853H1013.17ZM939.668 -72.6679V25.8928H927.974V81.8552H891.223V-47.417H902.916V-72.6679H939.668ZM1261 362H1518V74.0001L1371.5 74.0001V52.6215H1450.01V15.8701H1424.76V4.17639H1371.5V-70.9972H1211.13V78.5144H1261L1261 362ZM2449.34 361.668H2160.82V304.87H2132.42V206.309H2144.11V150.346L2180.86 150.346V201.298L2449.34 201.298V361.668ZM2427.27 52.6215H2328.71V40.9278L2272.74 40.9279V4.17642L2402.02 4.17639V15.8701H2427.27V52.6215ZM2429.77 126.124H2288.61V89.3729H2429.77V126.124ZM2291.12 174.569H2332.88V137.818H2291.12V174.569ZM1823.37 38.422V91.8788H1729.82V128.63H1823.37V165.382H1689.73V191H1618L1618 277.307H1561.93V437.677L1850.46 437.676V386H1857V326.587H1917.76V162.876H1957.66V126.124H1917.76V38.422H1823.37ZM2058.92 166.217V307.375H2095.67V166.217H2058.92ZM2010.47 210.485V168.722H2047.22V210.485H2010.47ZM2068.94 -28.3991V91.8784H2175.02V-28.3991H2068.94Z" fill="#FF00FF"/>
<path d="M699.113 103.572H704.113V98.5721L699.113 98.5721L699.113 103.572ZM547.095 103.572H542.095V108.572L547.095 108.572L547.095 103.572ZM699.113 116.936H694.113V121.936L699.113 121.936L699.113 116.936ZM755.075 116.936H760.075V111.936L755.075 111.936L755.075 116.936ZM755.075 128.63H750.075V133.63H755.075V128.63ZM853.636 128.63V133.63H858.636V128.63H853.636ZM853.636 91.8787H858.636V86.8787H853.636V91.8787ZM835.622 91.8787H830.622V96.8787H835.622V91.8787ZM835.622 -56.7978H840.622V-61.7978L835.622 -61.7978L835.622 -56.7978ZM547.095 -56.7978L547.095 -61.7978L542.095 -61.7978V-56.7978H547.095ZM714.983 -205.474H709.983V-200.474L714.983 -200.474L714.983 -205.474ZM813.543 -205.474L813.543 -200.474L818.543 -200.474V-205.474H813.543ZM714.983 -217.168H719.983V-222.168L714.983 -222.168L714.983 -217.168ZM659.02 -217.168L654.02 -217.168L654.02 -212.168L659.02 -212.168L659.02 -217.168ZM659.02 -253.919L659.02 -258.919L654.02 -258.919L654.02 -253.919L659.02 -253.919ZM788.293 -253.919H793.293V-258.919L788.293 -258.919L788.293 -253.919ZM788.293 -242.226H783.293V-237.226L788.293 -237.226L788.293 -242.226ZM813.543 -242.226H818.543V-247.226L813.543 -247.226L813.543 -242.226ZM674.89 -131.971H669.89V-126.971L674.89 -126.971L674.89 -131.971ZM816.049 -131.971L816.049 -126.971L821.049 -126.971V-131.971H816.049ZM674.89 -168.723L674.89 -173.723L669.89 -173.723V-168.723H674.89ZM816.049 -168.723H821.049V-173.723L816.049 -173.723L816.049 -168.723ZM719.159 -83.5261V-78.5261H724.159V-83.5261H719.159ZM677.396 -83.5261H672.396V-78.5261H677.396V-83.5261ZM719.159 -120.278H724.159V-125.278H719.159V-120.278ZM677.396 -120.278V-125.278H672.396V-120.278H677.396ZM273.965 171.228V176.228H278.965V171.228H273.965ZM273.965 78.5143L273.965 73.5143L268.965 73.5143V78.5143H273.965ZM113.595 171.228H108.595V176.228H113.595V171.228ZM113.595 44.2686V39.2686H108.595V44.2686H113.595ZM236.379 44.2686V49.2686H241.379V44.2686H236.379ZM236.379 -70.9972V-75.9972H231.379V-70.9972H236.379ZM396.749 -70.9972H401.749V-75.9972H396.749V-70.9972ZM396.749 -14.0002H391.749V-9.00023L396.749 -9.00023L396.749 -14.0002ZM486.197 -14.0002H491.197V-19.0002L486.197 -19.0002L486.197 -14.0002ZM486.197 -2.30661H481.197V2.69339H486.197V-2.30661ZM511.448 -2.30661H516.448V-7.30661H511.448V-2.30661ZM511.448 34.4448V39.4448H516.448V34.4448H511.448ZM412.887 34.4448H407.887V39.4448H412.887V34.4448ZM412.887 22.7512H417.887V17.7512H412.887V22.7512ZM396.749 22.7512V17.7512H391.749V22.7512H396.749ZM396.749 78.5143L396.749 83.5143L401.749 83.5143V78.5143H396.749ZM-35.0809 25.8929V30.8929H-30.0809L-30.0809 25.8929L-35.0809 25.8929ZM-35.0809 -72.6678L-30.0809 -72.6678L-30.0809 -77.6678H-35.0809V-72.6678ZM-46.7746 25.8929V20.8929H-51.7746V25.8929H-46.7746ZM-46.7746 81.8553L-46.7746 86.8553L-41.7746 86.8554V81.8553H-46.7746ZM-83.526 81.8553L-88.526 81.8553L-88.526 86.8553L-83.526 86.8553L-83.526 81.8553ZM-83.526 -47.4169V-52.4169H-88.526L-88.526 -47.4169L-83.526 -47.4169ZM-71.8324 -47.4169V-42.4169H-66.8324L-66.8324 -47.4169L-71.8324 -47.4169ZM-71.8324 -72.6678V-77.6678H-76.8324L-76.8324 -72.6678L-71.8324 -72.6678ZM38.422 65.9854V70.9854H43.422L43.422 65.9854L38.422 65.9854ZM38.422 -75.1736L43.422 -75.1736L43.422 -80.1736H38.422V-75.1736ZM1.67053 65.9854L-3.32947 65.9854L-3.32947 70.9854H1.67053V65.9854ZM1.67054 -75.1736V-80.1736H-3.32946L-3.32946 -75.1736L1.67054 -75.1736ZM86.867 21.7166H91.867V16.7166H86.867V21.7166ZM86.867 63.4796V68.4796H91.867V63.4796H86.867ZM50.1156 21.7166V16.7166H45.1156V21.7166H50.1156ZM50.1156 63.4796H45.1156V68.4796H50.1156V63.4796ZM533.526 343.491V348.491H538.526V343.491H533.526ZM245 343.491H240V348.491H245V343.491ZM533.526 183.121H538.526V178.121L533.526 178.121L533.526 183.121ZM245 183.121L245 178.121L240 178.121V183.121H245ZM875.714 326.587L875.714 321.587L870.714 321.587V326.587H875.714ZM875.714 437.676V442.676H880.714V437.676H875.714ZM1008.99 326.587L1008.99 331.587L1013.99 331.587V326.587H1008.99ZM1008.99 191.274H1013.99V186.274L1008.99 186.274L1008.99 191.274ZM848.624 191.274L848.624 186.274L843.624 186.274V191.274H848.624ZM848.624 277.306V282.306H853.624V277.306H848.624ZM587.188 277.306V272.306H582.188V277.306H587.188ZM587.188 437.676H582.188V442.676H587.188V437.676ZM1140 364H1135V369H1140V364ZM1140 150V145H1135V150H1140ZM1218 364V369H1223V364H1218ZM1218 150H1223V145H1218V150ZM1084.17 166.216V161.216H1079.17V166.216H1084.17ZM1084.17 307.375H1079.17V312.375H1084.17V307.375ZM1120.92 166.216H1125.92V161.216H1120.92V166.216ZM1120.92 307.375V312.375H1125.92V307.375H1120.92ZM1078 122H1073V127H1078V122ZM1078 79.9999V74.9999H1073V79.9999H1078ZM1140 122V127H1145V122H1140ZM1140 79.9999H1145V74.9999H1140V79.9999ZM759.252 250.578V255.578H764.252V250.578H759.252ZM717.489 250.578H712.489V255.578H717.489V250.578ZM759.252 213.827H764.252V208.827H759.252V213.827ZM717.489 213.827V208.827H712.489V213.827H717.489ZM1810.37 51.7861L1810.37 56.7861L1815.37 56.7861V51.7861H1810.37ZM1521.84 51.7861H1516.84V56.7861L1521.84 56.7861L1521.84 51.7861ZM1810.37 -85.3527H1815.37V-90.3527L1810.37 -90.3527L1810.37 -85.3527ZM1521.84 -85.3526L1521.84 -90.3526L1516.84 -90.3526V-85.3526H1521.84ZM1788.29 -212.492L1788.29 -207.492L1793.29 -207.492V-212.492H1788.29ZM1689.73 -212.492H1684.73V-207.492L1689.73 -207.492L1689.73 -212.492ZM1788.29 -243.919H1793.29V-248.919L1788.29 -248.919L1788.29 -243.919ZM1763.04 -243.919H1758.04V-238.919L1763.04 -238.919L1763.04 -243.919ZM1763.04 -253.919H1768.04V-258.919L1763.04 -258.919L1763.04 -253.919ZM1633.77 -253.919L1633.77 -258.919L1628.77 -258.919V-253.919H1633.77ZM1633.77 -222.491H1628.77V-217.491L1633.77 -217.491L1633.77 -222.491ZM1689.73 -222.491H1694.73V-227.491L1689.73 -227.491L1689.73 -222.491ZM1790.8 -149.636L1790.8 -144.636L1795.8 -144.636V-149.636H1790.8ZM1649.64 -149.636H1644.64V-144.636L1649.64 -144.636L1649.64 -149.636ZM1790.8 -181.064H1795.8V-186.064L1790.8 -186.064L1790.8 -181.064ZM1649.64 -181.064L1649.64 -186.064L1644.64 -186.064V-181.064H1649.64ZM1652.14 -108.209H1647.14V-103.209H1652.14V-108.209ZM1693.91 -108.209V-103.209H1698.91V-108.209H1693.91ZM1652.14 -139.637L1652.14 -144.637L1647.14 -144.637V-139.637H1652.14ZM1693.91 -139.637H1698.91V-144.637L1693.91 -144.637L1693.91 -139.637ZM1061.62 63.4795V68.4795H1066.62V63.4795H1061.62ZM1061.62 21.7165H1066.62V16.7165H1061.62V21.7165ZM1024.86 63.4795H1019.86V68.4795H1024.86V63.4795ZM1024.86 21.7165V16.7165H1019.86V21.7165H1024.86ZM1013.17 -75.1737H1018.17V-80.1737H1013.17V-75.1737ZM1013.17 65.9853V70.9853H1018.17V65.9853H1013.17ZM976.419 -75.1737V-80.1737H971.419V-75.1737H976.419ZM976.419 65.9853H971.419V70.9853H976.419V65.9853ZM939.668 25.8928V30.8928H944.668V25.8928H939.668ZM939.668 -72.6679H944.668V-77.6679H939.668V-72.6679ZM927.974 25.8928V20.8928H922.974V25.8928H927.974ZM927.974 81.8552V86.8552H932.974V81.8552H927.974ZM891.223 81.8552H886.223V86.8552H891.223V81.8552ZM891.223 -47.417V-52.417H886.223V-47.417H891.223ZM902.916 -47.417V-42.417H907.916V-47.417H902.916ZM902.916 -72.6679V-77.6679H897.916V-72.6679H902.916ZM1518 362V367H1523V362H1518ZM1261 362L1256 362L1256 367H1261V362ZM1518 74.0001H1523V69.0001L1518 69.0001L1518 74.0001ZM1371.5 74.0001H1366.5V79.0001L1371.5 79.0001L1371.5 74.0001ZM1371.5 52.6215V47.6215H1366.5V52.6215H1371.5ZM1450.01 52.6215V57.6215H1455.01V52.6215H1450.01ZM1450.01 15.8701H1455.01V10.8701H1450.01V15.8701ZM1424.76 15.8701H1419.76V20.8701H1424.76V15.8701ZM1424.76 4.17639H1429.76V-0.823608H1424.76V4.17639ZM1371.5 4.17639H1366.5V9.17639H1371.5V4.17639ZM1371.5 -70.9972H1376.5V-75.9972H1371.5V-70.9972ZM1211.13 -70.9972V-75.9972H1206.13V-70.9972H1211.13ZM1211.13 78.5144H1206.13V83.5144H1211.13V78.5144ZM1261 78.5144L1266 78.5144L1266 73.5144H1261V78.5144ZM2160.82 361.668H2155.82V366.668H2160.82V361.668ZM2449.34 361.668V366.668H2454.34V361.668H2449.34ZM2160.82 304.87H2165.82V299.87H2160.82V304.87ZM2132.42 304.87H2127.42V309.87H2132.42V304.87ZM2132.42 206.309V201.309H2127.42V206.309H2132.42ZM2144.11 206.309V211.309H2149.11V206.309H2144.11ZM2144.11 150.346L2144.11 145.346L2139.11 145.346V150.346H2144.11ZM2180.86 150.346H2185.86V145.346L2180.86 145.346L2180.86 150.346ZM2180.86 201.298H2175.86V206.298L2180.86 206.298L2180.86 201.298ZM2449.34 201.298H2454.34V196.298L2449.34 196.298L2449.34 201.298ZM2328.71 52.6215H2323.71V57.6215H2328.71V52.6215ZM2427.27 52.6215V57.6215H2432.27V52.6215H2427.27ZM2328.71 40.9278H2333.71V35.9278L2328.71 35.9278L2328.71 40.9278ZM2272.74 40.9279H2267.74V45.9279L2272.74 45.9279L2272.74 40.9279ZM2272.74 4.17642L2272.74 -0.823578L2267.74 -0.823577V4.17642H2272.74ZM2402.02 4.17639H2407.02V-0.82361L2402.02 -0.823608L2402.02 4.17639ZM2402.02 15.8701H2397.02V20.8701H2402.02V15.8701ZM2427.27 15.8701H2432.27V10.8701H2427.27V15.8701ZM2288.61 126.124H2283.61V131.124H2288.61V126.124ZM2429.77 126.124V131.124H2434.77V126.124H2429.77ZM2288.61 89.3729V84.3729H2283.61V89.3729H2288.61ZM2429.77 89.3729H2434.77V84.3729H2429.77V89.3729ZM2332.88 174.569V179.569H2337.88V174.569H2332.88ZM2291.12 174.569H2286.12V179.569H2291.12V174.569ZM2332.88 137.818H2337.88V132.818H2332.88V137.818ZM2291.12 137.818V132.818H2286.12V137.818H2291.12ZM1823.37 91.8788V96.8788H1828.37V91.8788H1823.37ZM1823.37 38.422V33.422H1818.37V38.422H1823.37ZM1729.82 91.8788V86.8788H1724.82V91.8788H1729.82ZM1729.82 128.63H1724.82V133.63H1729.82V128.63ZM1823.37 128.63H1828.37V123.63H1823.37V128.63ZM1823.37 165.382V170.382H1828.37V165.382H1823.37ZM1689.73 165.382V160.382H1684.73V165.382H1689.73ZM1689.73 191V196H1694.73V191H1689.73ZM1618 191V186H1613L1613 191L1618 191ZM1618 277.307V282.307H1623L1623 277.307L1618 277.307ZM1561.93 277.307V272.307H1556.93V277.307H1561.93ZM1561.93 437.677H1556.93V442.677L1561.93 442.677L1561.93 437.677ZM1850.46 437.676L1850.46 442.676L1855.46 442.676V437.676H1850.46ZM1850.46 386V381H1845.46V386H1850.46ZM1857 386V391H1862V386H1857ZM1857 326.587V321.587H1852V326.587H1857ZM1917.76 326.587V331.587H1922.76V326.587H1917.76ZM1917.76 162.876V157.876H1912.76V162.876H1917.76ZM1957.66 162.876V167.876H1962.66V162.876H1957.66ZM1957.66 126.124H1962.66V121.124H1957.66V126.124ZM1917.76 126.124H1912.76V131.124H1917.76V126.124ZM1917.76 38.422H1922.76V33.422H1917.76V38.422ZM2058.92 307.375H2053.92V312.375H2058.92V307.375ZM2058.92 166.217V161.217H2053.92V166.217H2058.92ZM2095.67 307.375V312.375H2100.67V307.375H2095.67ZM2095.67 166.217H2100.67V161.217H2095.67V166.217ZM2010.47 168.722V163.722H2005.47V168.722H2010.47ZM2010.47 210.485H2005.47V215.485H2010.47V210.485ZM2047.22 168.722H2052.22V163.722H2047.22V168.722ZM2047.22 210.485V215.485H2052.22V210.485H2047.22ZM2068.94 91.8784H2063.94V96.8784H2068.94V91.8784ZM2068.94 -28.3991V-33.3991H2063.94V-28.3991H2068.94ZM2175.02 91.8784V96.8784H2180.02V91.8784H2175.02ZM2175.02 -28.3991H2180.02V-33.3991H2175.02V-28.3991ZM699.113 98.5721L547.095 98.5722L547.095 108.572L699.113 108.572L699.113 98.5721ZM704.113 116.936V103.572H694.113V116.936H704.113ZM755.075 111.936L699.113 111.936L699.113 121.936L755.075 121.936L755.075 111.936ZM760.075 128.63V116.936H750.075V128.63H760.075ZM853.636 123.63H755.075V133.63H853.636V123.63ZM848.636 91.8787V128.63H858.636V91.8787H848.636ZM835.622 96.8787H853.636V86.8787H835.622V96.8787ZM830.622 -56.7978V91.8787H840.622V-56.7978H830.622ZM547.095 -51.7978L835.622 -51.7978L835.622 -61.7978L547.095 -61.7978L547.095 -51.7978ZM552.095 103.572V-56.7978H542.095V103.572H552.095ZM714.983 -200.474L813.543 -200.474L813.543 -210.474L714.983 -210.474L714.983 -200.474ZM709.983 -217.168V-205.474H719.983V-217.168H709.983ZM659.02 -212.168L714.983 -212.168L714.983 -222.168L659.02 -222.168L659.02 -212.168ZM654.02 -253.919L654.02 -217.168L664.02 -217.168L664.02 -253.919L654.02 -253.919ZM788.293 -258.919L659.02 -258.919L659.02 -248.919L788.293 -248.919L788.293 -258.919ZM793.293 -242.226V-253.919H783.293V-242.226H793.293ZM813.543 -247.226L788.293 -247.226L788.293 -237.226L813.543 -237.226L813.543 -247.226ZM818.543 -205.474V-242.226H808.543V-205.474H818.543ZM674.89 -126.971L816.049 -126.971L816.049 -136.971L674.89 -136.971L674.89 -126.971ZM669.89 -168.723V-131.971H679.89V-168.723H669.89ZM816.049 -173.723L674.89 -173.723L674.89 -163.723L816.049 -163.723L816.049 -173.723ZM821.049 -131.971V-168.723H811.049V-131.971H821.049ZM719.159 -88.5261H677.396V-78.5261H719.159V-88.5261ZM714.159 -120.278V-83.5261H724.159V-120.278H714.159ZM677.396 -115.278H719.159V-125.278H677.396V-115.278ZM682.396 -83.5261V-120.278H672.396V-83.5261H682.396ZM278.965 171.228V78.5143H268.965V171.228H278.965ZM113.595 176.228H273.965V166.228H113.595V176.228ZM108.595 44.2686V171.228H118.595V44.2686H108.595ZM236.379 39.2686H113.595V49.2686H236.379V39.2686ZM231.379 -70.9972V44.2686H241.379V-70.9972H231.379ZM396.749 -75.9972H236.379V-65.9972H396.749V-75.9972ZM401.749 -14.0002V-70.9972H391.749V-14.0002H401.749ZM486.197 -19.0002L396.749 -19.0002L396.749 -9.00023L486.197 -9.00024L486.197 -19.0002ZM491.197 -2.30661V-14.0002H481.197V-2.30661H491.197ZM511.448 -7.30661H486.197V2.69339H511.448V-7.30661ZM516.448 34.4448V-2.30661H506.448V34.4448H516.448ZM412.887 39.4448H511.448V29.4448H412.887V39.4448ZM407.887 22.7512V34.4448H417.887V22.7512H407.887ZM396.749 27.7512H412.887V17.7512H396.749V27.7512ZM401.749 78.5143V22.7512H391.749V78.5143H401.749ZM273.965 83.5143L396.749 83.5143L396.749 73.5143L273.965 73.5143L273.965 83.5143ZM-30.0809 25.8929L-30.0809 -72.6678L-40.0809 -72.6678L-40.0809 25.8929L-30.0809 25.8929ZM-46.7746 30.8929H-35.0809V20.8929H-46.7746V30.8929ZM-41.7746 81.8553V25.8929H-51.7746V81.8553H-41.7746ZM-83.526 86.8553L-46.7746 86.8553L-46.7746 76.8553L-83.526 76.8553L-83.526 86.8553ZM-88.526 -47.4169L-88.526 81.8553L-78.526 81.8553L-78.526 -47.4169L-88.526 -47.4169ZM-71.8324 -52.4169H-83.526V-42.4169H-71.8324V-52.4169ZM-76.8324 -72.6678L-76.8324 -47.4169L-66.8324 -47.4169L-66.8324 -72.6678L-76.8324 -72.6678ZM-35.0809 -77.6678H-71.8324V-67.6678H-35.0809V-77.6678ZM43.422 65.9854L43.422 -75.1736L33.422 -75.1736L33.422 65.9854L43.422 65.9854ZM1.67053 70.9854H38.422V60.9854H1.67053V70.9854ZM-3.32946 -75.1736L-3.32947 65.9854L6.67053 65.9854L6.67054 -75.1736L-3.32946 -75.1736ZM38.422 -80.1736H1.67054V-70.1736H38.422V-80.1736ZM81.867 21.7166V63.4796H91.867V21.7166H81.867ZM50.1156 26.7166H86.867V16.7166H50.1156V26.7166ZM55.1156 63.4796V21.7166H45.1156V63.4796H55.1156ZM86.867 58.4796H50.1156V68.4796H86.867V58.4796ZM533.526 338.491H245V348.491H533.526V338.491ZM528.526 183.121V343.491H538.526V183.121H528.526ZM245 188.121L533.526 188.121L533.526 178.121L245 178.121L245 188.121ZM250 343.491V183.121H240V343.491H250ZM870.714 326.587V437.676H880.714V326.587H870.714ZM1008.99 321.587L875.714 321.587L875.714 331.587L1008.99 331.587L1008.99 321.587ZM1003.99 191.274V326.587H1013.99V191.274H1003.99ZM848.624 196.274L1008.99 196.274L1008.99 186.274L848.624 186.274L848.624 196.274ZM853.624 277.306V191.274H843.624V277.306H853.624ZM587.188 282.306H848.624V272.306H587.188V282.306ZM592.188 437.676V277.306H582.188V437.676H592.188ZM875.714 432.676H587.188V442.676H875.714V432.676ZM1145 364V150H1135V364H1145ZM1218 359H1140V369H1218V359ZM1213 150V364H1223V150H1213ZM1140 155H1218V145H1140V155ZM1079.17 166.216V307.375H1089.17V166.216H1079.17ZM1120.92 161.216H1084.17V171.216H1120.92V161.216ZM1125.92 307.375V166.216H1115.92V307.375H1125.92ZM1084.17 312.375H1120.92V302.375H1084.17V312.375ZM1083 122V79.9999H1073V122H1083ZM1140 117H1078V127H1140V117ZM1135 79.9999V122H1145V79.9999H1135ZM1078 84.9999H1140V74.9999H1078V84.9999ZM759.252 245.578H717.489V255.578H759.252V245.578ZM754.252 213.827V250.578H764.252V213.827H754.252ZM717.489 218.827H759.252V208.827H717.489V218.827ZM722.489 250.578V213.827H712.489V250.578H722.489ZM1810.37 46.7861L1521.84 46.7861L1521.84 56.7861L1810.37 56.7861L1810.37 46.7861ZM1805.37 -85.3527V51.7861H1815.37V-85.3527H1805.37ZM1521.84 -80.3526L1810.37 -80.3527L1810.37 -90.3527L1521.84 -90.3526L1521.84 -80.3526ZM1526.84 51.7861V-85.3526H1516.84V51.7861H1526.84ZM1788.29 -217.492L1689.73 -217.492L1689.73 -207.492L1788.29 -207.492L1788.29 -217.492ZM1783.29 -243.919V-212.492H1793.29V-243.919H1783.29ZM1763.04 -238.919L1788.29 -238.919L1788.29 -248.919L1763.04 -248.919L1763.04 -238.919ZM1758.04 -253.919V-243.919H1768.04V-253.919H1758.04ZM1633.77 -248.919L1763.04 -248.919L1763.04 -258.919L1633.77 -258.919L1633.77 -248.919ZM1638.77 -222.491V-253.919H1628.77V-222.491H1638.77ZM1689.73 -227.491L1633.77 -227.491L1633.77 -217.491L1689.73 -217.491L1689.73 -227.491ZM1694.73 -212.492V-222.491H1684.73V-212.492H1694.73ZM1790.8 -154.636L1649.64 -154.636L1649.64 -144.636L1790.8 -144.636L1790.8 -154.636ZM1785.8 -181.064V-149.636H1795.8V-181.064H1785.8ZM1649.64 -176.064L1790.8 -176.064L1790.8 -186.064L1649.64 -186.064L1649.64 -176.064ZM1654.64 -149.636V-181.064H1644.64V-149.636H1654.64ZM1652.14 -103.209H1693.91V-113.209H1652.14V-103.209ZM1647.14 -139.637V-108.209H1657.14V-139.637H1647.14ZM1693.91 -144.637L1652.14 -144.637L1652.14 -134.637L1693.91 -134.637L1693.91 -144.637ZM1698.91 -108.209V-139.637H1688.91V-108.209H1698.91ZM1066.62 63.4795V21.7165H1056.62V63.4795H1066.62ZM1024.86 68.4795H1061.62V58.4795H1024.86V68.4795ZM1019.86 21.7165V63.4795H1029.86V21.7165H1019.86ZM1061.62 16.7165H1024.86V26.7165H1061.62V16.7165ZM1008.17 -75.1737V65.9853H1018.17V-75.1737H1008.17ZM976.419 -70.1737H1013.17V-80.1737H976.419V-70.1737ZM981.419 65.9853V-75.1737H971.419V65.9853H981.419ZM1013.17 60.9853H976.419V70.9853H1013.17V60.9853ZM944.668 25.8928V-72.6679H934.668V25.8928H944.668ZM927.974 30.8928H939.668V20.8928H927.974V30.8928ZM932.974 81.8552V25.8928H922.974V81.8552H932.974ZM891.223 86.8552H927.974V76.8552H891.223V86.8552ZM886.223 -47.417V81.8552H896.223V-47.417H886.223ZM902.916 -52.417H891.223V-42.417H902.916V-52.417ZM897.916 -72.6679V-47.417H907.916V-72.6679H897.916ZM939.668 -77.6679H902.916V-67.6679H939.668V-77.6679ZM1518 357H1261V367H1518V357ZM1513 74.0001V362H1523V74.0001H1513ZM1371.5 79.0001L1518 79.0001L1518 69.0001L1371.5 69.0001L1371.5 79.0001ZM1366.5 52.6215V74.0001H1376.5V52.6215H1366.5ZM1450.01 47.6215H1371.5V57.6215H1450.01V47.6215ZM1445.01 15.8701V52.6215H1455.01V15.8701H1445.01ZM1424.76 20.8701H1450.01V10.8701H1424.76V20.8701ZM1419.76 4.17639V15.8701H1429.76V4.17639H1419.76ZM1371.5 9.17639H1424.76V-0.823608H1371.5V9.17639ZM1366.5 -70.9972V4.17639H1376.5V-70.9972H1366.5ZM1211.13 -65.9972H1371.5V-75.9972H1211.13V-65.9972ZM1216.13 78.5144V-70.9972H1206.13V78.5144H1216.13ZM1261 73.5144H1211.13V83.5144H1261V73.5144ZM1266 362L1266 78.5144L1256 78.5144L1256 362L1266 362ZM2160.82 366.668H2449.34V356.668H2160.82V366.668ZM2155.82 304.87V361.668H2165.82V304.87H2155.82ZM2132.42 309.87H2160.82V299.87H2132.42V309.87ZM2127.42 206.309V304.87H2137.42V206.309H2127.42ZM2144.11 201.309H2132.42V211.309H2144.11V201.309ZM2139.11 150.346V206.309H2149.11V150.346H2139.11ZM2180.86 145.346L2144.11 145.346L2144.11 155.346L2180.86 155.346L2180.86 145.346ZM2185.86 201.298V150.346H2175.86V201.298H2185.86ZM2449.34 196.298L2180.86 196.298L2180.86 206.298L2449.34 206.298L2449.34 196.298ZM2454.34 361.668V201.298H2444.34V361.668H2454.34ZM2328.71 57.6215H2427.27V47.6215H2328.71V57.6215ZM2323.71 40.9278V52.6215H2333.71V40.9278H2323.71ZM2272.74 45.9279L2328.71 45.9278L2328.71 35.9278L2272.74 35.9279L2272.74 45.9279ZM2267.74 4.17642V40.9279H2277.74V4.17642H2267.74ZM2402.02 -0.823608L2272.74 -0.823578L2272.74 9.17642L2402.02 9.17639L2402.02 -0.823608ZM2407.02 15.8701V4.17639H2397.02V15.8701H2407.02ZM2427.27 10.8701H2402.02V20.8701H2427.27V10.8701ZM2432.27 52.6215V15.8701H2422.27V52.6215H2432.27ZM2288.61 131.124H2429.77V121.124H2288.61V131.124ZM2283.61 89.3729V126.124H2293.61V89.3729H2283.61ZM2429.77 84.3729H2288.61V94.3729H2429.77V84.3729ZM2434.77 126.124V89.3729H2424.77V126.124H2434.77ZM2332.88 169.569H2291.12V179.569H2332.88V169.569ZM2327.88 137.818V174.569H2337.88V137.818H2327.88ZM2291.12 142.818H2332.88V132.818H2291.12V142.818ZM2296.12 174.569V137.818H2286.12V174.569H2296.12ZM1828.37 91.8788V38.422H1818.37V91.8788H1828.37ZM1729.82 96.8788H1823.37V86.8788H1729.82V96.8788ZM1734.82 128.63V91.8788H1724.82V128.63H1734.82ZM1823.37 123.63H1729.82V133.63H1823.37V123.63ZM1828.37 165.382V128.63H1818.37V165.382H1828.37ZM1689.73 170.382H1823.37V160.382H1689.73V170.382ZM1694.73 191V165.382H1684.73V191H1694.73ZM1618 196H1689.73V186H1618V196ZM1623 277.307L1623 191L1613 191L1613 277.307L1623 277.307ZM1561.93 282.307H1618V272.307H1561.93V282.307ZM1566.93 437.677V277.307H1556.93V437.677H1566.93ZM1850.46 432.676L1561.93 432.677L1561.93 442.677L1850.46 442.676L1850.46 432.676ZM1845.46 386V437.676H1855.46V386H1845.46ZM1857 381H1850.46V391H1857V381ZM1852 326.587V386H1862V326.587H1852ZM1917.76 321.587H1857V331.587H1917.76V321.587ZM1912.76 162.876V326.587H1922.76V162.876H1912.76ZM1957.66 157.876H1917.76V167.876H1957.66V157.876ZM1952.66 126.124V162.876H1962.66V126.124H1952.66ZM1917.76 131.124H1957.66V121.124H1917.76V131.124ZM1912.76 38.422V126.124H1922.76V38.422H1912.76ZM1823.37 43.422H1917.76V33.422H1823.37V43.422ZM2063.92 307.375V166.217H2053.92V307.375H2063.92ZM2095.67 302.375H2058.92V312.375H2095.67V302.375ZM2090.67 166.217V307.375H2100.67V166.217H2090.67ZM2058.92 171.217H2095.67V161.217H2058.92V171.217ZM2005.47 168.722V210.485H2015.47V168.722H2005.47ZM2047.22 163.722H2010.47V173.722H2047.22V163.722ZM2052.22 210.485V168.722H2042.22V210.485H2052.22ZM2010.47 215.485H2047.22V205.485H2010.47V215.485ZM2073.94 91.8784V-28.3991H2063.94V91.8784H2073.94ZM2175.02 86.8784H2068.94V96.8784H2175.02V86.8784ZM2170.02 -28.3991V91.8784H2180.02V-28.3991H2170.02ZM2068.94 -23.3991H2175.02V-33.3991H2068.94V-23.3991Z" fill="black" mask="url(#path-3-inside-1_3615_642)"/>
<mask id="path-5-inside-2_3615_642" fill="white">
<path fill-rule="evenodd" clip-rule="evenodd" d="M547.095 103.572L699.113 103.572V116.936L755.075 116.936V128.63H853.636V91.8787H835.622V-56.7978L547.095 -56.7978V103.572ZM813.543 -205.474L714.983 -205.474V-217.168L659.02 -217.168L659.02 -253.919L788.293 -253.919V-242.226L813.543 -242.226V-205.474ZM816.049 -131.971L674.89 -131.971V-168.723L816.049 -168.723V-131.971ZM677.396 -83.5261H719.159V-120.278H677.396V-83.5261ZM273.965 78.5143V171.228H113.595V44.2686H236.379V-70.9972H396.749V-14.0002L486.197 -14.0002V-2.30661H511.448V34.4448H412.887V22.7512H396.749V78.5143L273.965 78.5143ZM-35.0809 -72.6678L-35.0809 25.8929H-46.7746V81.8553L-83.526 81.8553L-83.526 -47.4169H-71.8324L-71.8324 -72.6678H-35.0809ZM38.422 -75.1736L38.422 65.9854H1.67053L1.67054 -75.1736H38.422ZM86.867 63.4796V21.7166H50.1156V63.4796H86.867ZM245 343.491H533.526V183.121L245 183.121V343.491ZM875.714 437.676V326.587L1008.99 326.587V191.274L848.624 191.274V277.306H587.188V437.676H875.714ZM1140 150V364H1218V150H1140ZM1084.17 307.375V166.216H1120.92V307.375H1084.17ZM1078 79.9999V122H1140V79.9999H1078ZM717.489 250.578H759.252V213.827H717.489V250.578ZM1521.84 51.7861L1810.37 51.7861V-85.3527L1521.84 -85.3526V51.7861ZM1689.73 -212.492L1788.29 -212.492V-243.919L1763.04 -243.919V-253.919L1633.77 -253.919V-222.491L1689.73 -222.491V-212.492ZM1649.64 -149.636L1790.8 -149.636V-181.064L1649.64 -181.064V-149.636ZM1693.91 -108.209H1652.14V-139.637L1693.91 -139.637V-108.209ZM1061.62 21.7165V63.4795H1024.86V21.7165H1061.62ZM1013.17 65.9853V-75.1737H976.419V65.9853H1013.17ZM939.668 -72.6679V25.8928H927.974V81.8552H891.223V-47.417H902.916V-72.6679H939.668ZM1261 362H1518V74.0001L1371.5 74.0001V52.6215H1450.01V15.8701H1424.76V4.17639H1371.5V-70.9972H1211.13V78.5144H1261L1261 362ZM2449.34 361.668H2160.82V304.87H2132.42V206.309H2144.11V150.346L2180.86 150.346V201.298L2449.34 201.298V361.668ZM2427.27 52.6215H2328.71V40.9278L2272.74 40.9279V4.17642L2402.02 4.17639V15.8701H2427.27V52.6215ZM2429.77 126.124H2288.61V89.3729H2429.77V126.124ZM2291.12 174.569H2332.88V137.818H2291.12V174.569ZM1823.37 38.422V91.8788H1729.82V128.63H1823.37V165.382H1689.73V191H1618L1618 277.307H1561.93V437.677L1850.46 437.676V386H1857V326.587H1917.76V162.876H1957.66V126.124H1917.76V38.422H1823.37ZM2058.92 166.217V307.375H2095.67V166.217H2058.92ZM2010.47 210.485V168.722H2047.22V210.485H2010.47ZM2068.94 -28.3991V91.8784H2175.02V-28.3991H2068.94Z"/>
</mask>
<path fill-rule="evenodd" clip-rule="evenodd" d="M547.095 103.572L699.113 103.572V116.936L755.075 116.936V128.63H853.636V91.8787H835.622V-56.7978L547.095 -56.7978V103.572ZM813.543 -205.474L714.983 -205.474V-217.168L659.02 -217.168L659.02 -253.919L788.293 -253.919V-242.226L813.543 -242.226V-205.474ZM816.049 -131.971L674.89 -131.971V-168.723L816.049 -168.723V-131.971ZM677.396 -83.5261H719.159V-120.278H677.396V-83.5261ZM273.965 78.5143V171.228H113.595V44.2686H236.379V-70.9972H396.749V-14.0002L486.197 -14.0002V-2.30661H511.448V34.4448H412.887V22.7512H396.749V78.5143L273.965 78.5143ZM-35.0809 -72.6678L-35.0809 25.8929H-46.7746V81.8553L-83.526 81.8553L-83.526 -47.4169H-71.8324L-71.8324 -72.6678H-35.0809ZM38.422 -75.1736L38.422 65.9854H1.67053L1.67054 -75.1736H38.422ZM86.867 63.4796V21.7166H50.1156V63.4796H86.867ZM245 343.491H533.526V183.121L245 183.121V343.491ZM875.714 437.676V326.587L1008.99 326.587V191.274L848.624 191.274V277.306H587.188V437.676H875.714ZM1140 150V364H1218V150H1140ZM1084.17 307.375V166.216H1120.92V307.375H1084.17ZM1078 79.9999V122H1140V79.9999H1078ZM717.489 250.578H759.252V213.827H717.489V250.578ZM1521.84 51.7861L1810.37 51.7861V-85.3527L1521.84 -85.3526V51.7861ZM1689.73 -212.492L1788.29 -212.492V-243.919L1763.04 -243.919V-253.919L1633.77 -253.919V-222.491L1689.73 -222.491V-212.492ZM1649.64 -149.636L1790.8 -149.636V-181.064L1649.64 -181.064V-149.636ZM1693.91 -108.209H1652.14V-139.637L1693.91 -139.637V-108.209ZM1061.62 21.7165V63.4795H1024.86V21.7165H1061.62ZM1013.17 65.9853V-75.1737H976.419V65.9853H1013.17ZM939.668 -72.6679V25.8928H927.974V81.8552H891.223V-47.417H902.916V-72.6679H939.668ZM1261 362H1518V74.0001L1371.5 74.0001V52.6215H1450.01V15.8701H1424.76V4.17639H1371.5V-70.9972H1211.13V78.5144H1261L1261 362ZM2449.34 361.668H2160.82V304.87H2132.42V206.309H2144.11V150.346L2180.86 150.346V201.298L2449.34 201.298V361.668ZM2427.27 52.6215H2328.71V40.9278L2272.74 40.9279V4.17642L2402.02 4.17639V15.8701H2427.27V52.6215ZM2429.77 126.124H2288.61V89.3729H2429.77V126.124ZM2291.12 174.569H2332.88V137.818H2291.12V174.569ZM1823.37 38.422V91.8788H1729.82V128.63H1823.37V165.382H1689.73V191H1618L1618 277.307H1561.93V437.677L1850.46 437.676V386H1857V326.587H1917.76V162.876H1957.66V126.124H1917.76V38.422H1823.37ZM2058.92 166.217V307.375H2095.67V166.217H2058.92ZM2010.47 210.485V168.722H2047.22V210.485H2010.47ZM2068.94 -28.3991V91.8784H2175.02V-28.3991H2068.94Z" fill="#FF00FF"/>
<path d="M699.113 103.572H704.113V98.5721L699.113 98.5721L699.113 103.572ZM547.095 103.572H542.095V108.572L547.095 108.572L547.095 103.572ZM699.113 116.936H694.113V121.936L699.113 121.936L699.113 116.936ZM755.075 116.936H760.075V111.936L755.075 111.936L755.075 116.936ZM755.075 128.63H750.075V133.63H755.075V128.63ZM853.636 128.63V133.63H858.636V128.63H853.636ZM853.636 91.8787H858.636V86.8787H853.636V91.8787ZM835.622 91.8787H830.622V96.8787H835.622V91.8787ZM835.622 -56.7978H840.622V-61.7978L835.622 -61.7978L835.622 -56.7978ZM547.095 -56.7978L547.095 -61.7978L542.095 -61.7978V-56.7978H547.095ZM714.983 -205.474H709.983V-200.474L714.983 -200.474L714.983 -205.474ZM813.543 -205.474L813.543 -200.474L818.543 -200.474V-205.474H813.543ZM714.983 -217.168H719.983V-222.168L714.983 -222.168L714.983 -217.168ZM659.02 -217.168L654.02 -217.168L654.02 -212.168L659.02 -212.168L659.02 -217.168ZM659.02 -253.919L659.02 -258.919L654.02 -258.919L654.02 -253.919L659.02 -253.919ZM788.293 -253.919H793.293V-258.919L788.293 -258.919L788.293 -253.919ZM788.293 -242.226H783.293V-237.226L788.293 -237.226L788.293 -242.226ZM813.543 -242.226H818.543V-247.226L813.543 -247.226L813.543 -242.226ZM674.89 -131.971H669.89V-126.971L674.89 -126.971L674.89 -131.971ZM816.049 -131.971L816.049 -126.971L821.049 -126.971V-131.971H816.049ZM674.89 -168.723L674.89 -173.723L669.89 -173.723V-168.723H674.89ZM816.049 -168.723H821.049V-173.723L816.049 -173.723L816.049 -168.723ZM719.159 -83.5261V-78.5261H724.159V-83.5261H719.159ZM677.396 -83.5261H672.396V-78.5261H677.396V-83.5261ZM719.159 -120.278H724.159V-125.278H719.159V-120.278ZM677.396 -120.278V-125.278H672.396V-120.278H677.396ZM273.965 171.228V176.228H278.965V171.228H273.965ZM273.965 78.5143L273.965 73.5143L268.965 73.5143V78.5143H273.965ZM113.595 171.228H108.595V176.228H113.595V171.228ZM113.595 44.2686V39.2686H108.595V44.2686H113.595ZM236.379 44.2686V49.2686H241.379V44.2686H236.379ZM236.379 -70.9972V-75.9972H231.379V-70.9972H236.379ZM396.749 -70.9972H401.749V-75.9972H396.749V-70.9972ZM396.749 -14.0002H391.749V-9.00023L396.749 -9.00023L396.749 -14.0002ZM486.197 -14.0002H491.197V-19.0002L486.197 -19.0002L486.197 -14.0002ZM486.197 -2.30661H481.197V2.69339H486.197V-2.30661ZM511.448 -2.30661H516.448V-7.30661H511.448V-2.30661ZM511.448 34.4448V39.4448H516.448V34.4448H511.448ZM412.887 34.4448H407.887V39.4448H412.887V34.4448ZM412.887 22.7512H417.887V17.7512H412.887V22.7512ZM396.749 22.7512V17.7512H391.749V22.7512H396.749ZM396.749 78.5143L396.749 83.5143L401.749 83.5143V78.5143H396.749ZM-35.0809 25.8929V30.8929H-30.0809L-30.0809 25.8929L-35.0809 25.8929ZM-35.0809 -72.6678L-30.0809 -72.6678L-30.0809 -77.6678H-35.0809V-72.6678ZM-46.7746 25.8929V20.8929H-51.7746V25.8929H-46.7746ZM-46.7746 81.8553L-46.7746 86.8553L-41.7746 86.8554V81.8553H-46.7746ZM-83.526 81.8553L-88.526 81.8553L-88.526 86.8553L-83.526 86.8553L-83.526 81.8553ZM-83.526 -47.4169V-52.4169H-88.526L-88.526 -47.4169L-83.526 -47.4169ZM-71.8324 -47.4169V-42.4169H-66.8324L-66.8324 -47.4169L-71.8324 -47.4169ZM-71.8324 -72.6678V-77.6678H-76.8324L-76.8324 -72.6678L-71.8324 -72.6678ZM38.422 65.9854V70.9854H43.422L43.422 65.9854L38.422 65.9854ZM38.422 -75.1736L43.422 -75.1736L43.422 -80.1736H38.422V-75.1736ZM1.67053 65.9854L-3.32947 65.9854L-3.32947 70.9854H1.67053V65.9854ZM1.67054 -75.1736V-80.1736H-3.32946L-3.32946 -75.1736L1.67054 -75.1736ZM86.867 21.7166H91.867V16.7166H86.867V21.7166ZM86.867 63.4796V68.4796H91.867V63.4796H86.867ZM50.1156 21.7166V16.7166H45.1156V21.7166H50.1156ZM50.1156 63.4796H45.1156V68.4796H50.1156V63.4796ZM533.526 343.491V348.491H538.526V343.491H533.526ZM245 343.491H240V348.491H245V343.491ZM533.526 183.121H538.526V178.121L533.526 178.121L533.526 183.121ZM245 183.121L245 178.121L240 178.121V183.121H245ZM875.714 326.587L875.714 321.587L870.714 321.587V326.587H875.714ZM875.714 437.676V442.676H880.714V437.676H875.714ZM1008.99 326.587L1008.99 331.587L1013.99 331.587V326.587H1008.99ZM1008.99 191.274H1013.99V186.274L1008.99 186.274L1008.99 191.274ZM848.624 191.274L848.624 186.274L843.624 186.274V191.274H848.624ZM848.624 277.306V282.306H853.624V277.306H848.624ZM587.188 277.306V272.306H582.188V277.306H587.188ZM587.188 437.676H582.188V442.676H587.188V437.676ZM1140 364H1135V369H1140V364ZM1140 150V145H1135V150H1140ZM1218 364V369H1223V364H1218ZM1218 150H1223V145H1218V150ZM1084.17 166.216V161.216H1079.17V166.216H1084.17ZM1084.17 307.375H1079.17V312.375H1084.17V307.375ZM1120.92 166.216H1125.92V161.216H1120.92V166.216ZM1120.92 307.375V312.375H1125.92V307.375H1120.92ZM1078 122H1073V127H1078V122ZM1078 79.9999V74.9999H1073V79.9999H1078ZM1140 122V127H1145V122H1140ZM1140 79.9999H1145V74.9999H1140V79.9999ZM759.252 250.578V255.578H764.252V250.578H759.252ZM717.489 250.578H712.489V255.578H717.489V250.578ZM759.252 213.827H764.252V208.827H759.252V213.827ZM717.489 213.827V208.827H712.489V213.827H717.489ZM1810.37 51.7861L1810.37 56.7861L1815.37 56.7861V51.7861H1810.37ZM1521.84 51.7861H1516.84V56.7861L1521.84 56.7861L1521.84 51.7861ZM1810.37 -85.3527H1815.37V-90.3527L1810.37 -90.3527L1810.37 -85.3527ZM1521.84 -85.3526L1521.84 -90.3526L1516.84 -90.3526V-85.3526H1521.84ZM1788.29 -212.492L1788.29 -207.492L1793.29 -207.492V-212.492H1788.29ZM1689.73 -212.492H1684.73V-207.492L1689.73 -207.492L1689.73 -212.492ZM1788.29 -243.919H1793.29V-248.919L1788.29 -248.919L1788.29 -243.919ZM1763.04 -243.919H1758.04V-238.919L1763.04 -238.919L1763.04 -243.919ZM1763.04 -253.919H1768.04V-258.919L1763.04 -258.919L1763.04 -253.919ZM1633.77 -253.919L1633.77 -258.919L1628.77 -258.919V-253.919H1633.77ZM1633.77 -222.491H1628.77V-217.491L1633.77 -217.491L1633.77 -222.491ZM1689.73 -222.491H1694.73V-227.491L1689.73 -227.491L1689.73 -222.491ZM1790.8 -149.636L1790.8 -144.636L1795.8 -144.636V-149.636H1790.8ZM1649.64 -149.636H1644.64V-144.636L1649.64 -144.636L1649.64 -149.636ZM1790.8 -181.064H1795.8V-186.064L1790.8 -186.064L1790.8 -181.064ZM1649.64 -181.064L1649.64 -186.064L1644.64 -186.064V-181.064H1649.64ZM1652.14 -108.209H1647.14V-103.209H1652.14V-108.209ZM1693.91 -108.209V-103.209H1698.91V-108.209H1693.91ZM1652.14 -139.637L1652.14 -144.637L1647.14 -144.637V-139.637H1652.14ZM1693.91 -139.637H1698.91V-144.637L1693.91 -144.637L1693.91 -139.637ZM1061.62 63.4795V68.4795H1066.62V63.4795H1061.62ZM1061.62 21.7165H1066.62V16.7165H1061.62V21.7165ZM1024.86 63.4795H1019.86V68.4795H1024.86V63.4795ZM1024.86 21.7165V16.7165H1019.86V21.7165H1024.86ZM1013.17 -75.1737H1018.17V-80.1737H1013.17V-75.1737ZM1013.17 65.9853V70.9853H1018.17V65.9853H1013.17ZM976.419 -75.1737V-80.1737H971.419V-75.1737H976.419ZM976.419 65.9853H971.419V70.9853H976.419V65.9853ZM939.668 25.8928V30.8928H944.668V25.8928H939.668ZM939.668 -72.6679H944.668V-77.6679H939.668V-72.6679ZM927.974 25.8928V20.8928H922.974V25.8928H927.974ZM927.974 81.8552V86.8552H932.974V81.8552H927.974ZM891.223 81.8552H886.223V86.8552H891.223V81.8552ZM891.223 -47.417V-52.417H886.223V-47.417H891.223ZM902.916 -47.417V-42.417H907.916V-47.417H902.916ZM902.916 -72.6679V-77.6679H897.916V-72.6679H902.916ZM1518 362V367H1523V362H1518ZM1261 362L1256 362L1256 367H1261V362ZM1518 74.0001H1523V69.0001L1518 69.0001L1518 74.0001ZM1371.5 74.0001H1366.5V79.0001L1371.5 79.0001L1371.5 74.0001ZM1371.5 52.6215V47.6215H1366.5V52.6215H1371.5ZM1450.01 52.6215V57.6215H1455.01V52.6215H1450.01ZM1450.01 15.8701H1455.01V10.8701H1450.01V15.8701ZM1424.76 15.8701H1419.76V20.8701H1424.76V15.8701ZM1424.76 4.17639H1429.76V-0.823608H1424.76V4.17639ZM1371.5 4.17639H1366.5V9.17639H1371.5V4.17639ZM1371.5 -70.9972H1376.5V-75.9972H1371.5V-70.9972ZM1211.13 -70.9972V-75.9972H1206.13V-70.9972H1211.13ZM1211.13 78.5144H1206.13V83.5144H1211.13V78.5144ZM1261 78.5144L1266 78.5144L1266 73.5144H1261V78.5144ZM2160.82 361.668H2155.82V366.668H2160.82V361.668ZM2449.34 361.668V366.668H2454.34V361.668H2449.34ZM2160.82 304.87H2165.82V299.87H2160.82V304.87ZM2132.42 304.87H2127.42V309.87H2132.42V304.87ZM2132.42 206.309V201.309H2127.42V206.309H2132.42ZM2144.11 206.309V211.309H2149.11V206.309H2144.11ZM2144.11 150.346L2144.11 145.346L2139.11 145.346V150.346H2144.11ZM2180.86 150.346H2185.86V145.346L2180.86 145.346L2180.86 150.346ZM2180.86 201.298H2175.86V206.298L2180.86 206.298L2180.86 201.298ZM2449.34 201.298H2454.34V196.298L2449.34 196.298L2449.34 201.298ZM2328.71 52.6215H2323.71V57.6215H2328.71V52.6215ZM2427.27 52.6215V57.6215H2432.27V52.6215H2427.27ZM2328.71 40.9278H2333.71V35.9278L2328.71 35.9278L2328.71 40.9278ZM2272.74 40.9279H2267.74V45.9279L2272.74 45.9279L2272.74 40.9279ZM2272.74 4.17642L2272.74 -0.823578L2267.74 -0.823577V4.17642H2272.74ZM2402.02 4.17639H2407.02V-0.82361L2402.02 -0.823608L2402.02 4.17639ZM2402.02 15.8701H2397.02V20.8701H2402.02V15.8701ZM2427.27 15.8701H2432.27V10.8701H2427.27V15.8701ZM2288.61 126.124H2283.61V131.124H2288.61V126.124ZM2429.77 126.124V131.124H2434.77V126.124H2429.77ZM2288.61 89.3729V84.3729H2283.61V89.3729H2288.61ZM2429.77 89.3729H2434.77V84.3729H2429.77V89.3729ZM2332.88 174.569V179.569H2337.88V174.569H2332.88ZM2291.12 174.569H2286.12V179.569H2291.12V174.569ZM2332.88 137.818H2337.88V132.818H2332.88V137.818ZM2291.12 137.818V132.818H2286.12V137.818H2291.12ZM1823.37 91.8788V96.8788H1828.37V91.8788H1823.37ZM1823.37 38.422V33.422H1818.37V38.422H1823.37ZM1729.82 91.8788V86.8788H1724.82V91.8788H1729.82ZM1729.82 128.63H1724.82V133.63H1729.82V128.63ZM1823.37 128.63H1828.37V123.63H1823.37V128.63ZM1823.37 165.382V170.382H1828.37V165.382H1823.37ZM1689.73 165.382V160.382H1684.73V165.382H1689.73ZM1689.73 191V196H1694.73V191H1689.73ZM1618 191V186H1613L1613 191L1618 191ZM1618 277.307V282.307H1623L1623 277.307L1618 277.307ZM1561.93 277.307V272.307H1556.93V277.307H1561.93ZM1561.93 437.677H1556.93V442.677L1561.93 442.677L1561.93 437.677ZM1850.46 437.676L1850.46 442.676L1855.46 442.676V437.676H1850.46ZM1850.46 386V381H1845.46V386H1850.46ZM1857 386V391H1862V386H1857ZM1857 326.587V321.587H1852V326.587H1857ZM1917.76 326.587V331.587H1922.76V326.587H1917.76ZM1917.76 162.876V157.876H1912.76V162.876H1917.76ZM1957.66 162.876V167.876H1962.66V162.876H1957.66ZM1957.66 126.124H1962.66V121.124H1957.66V126.124ZM1917.76 126.124H1912.76V131.124H1917.76V126.124ZM1917.76 38.422H1922.76V33.422H1917.76V38.422ZM2058.92 307.375H2053.92V312.375H2058.92V307.375ZM2058.92 166.217V161.217H2053.92V166.217H2058.92ZM2095.67 307.375V312.375H2100.67V307.375H2095.67ZM2095.67 166.217H2100.67V161.217H2095.67V166.217ZM2010.47 168.722V163.722H2005.47V168.722H2010.47ZM2010.47 210.485H2005.47V215.485H2010.47V210.485ZM2047.22 168.722H2052.22V163.722H2047.22V168.722ZM2047.22 210.485V215.485H2052.22V210.485H2047.22ZM2068.94 91.8784H2063.94V96.8784H2068.94V91.8784ZM2068.94 -28.3991V-33.3991H2063.94V-28.3991H2068.94ZM2175.02 91.8784V96.8784H2180.02V91.8784H2175.02ZM2175.02 -28.3991H2180.02V-33.3991H2175.02V-28.3991ZM699.113 98.5721L547.095 98.5722L547.095 108.572L699.113 108.572L699.113 98.5721ZM704.113 116.936V103.572H694.113V116.936H704.113ZM755.075 111.936L699.113 111.936L699.113 121.936L755.075 121.936L755.075 111.936ZM760.075 128.63V116.936H750.075V128.63H760.075ZM853.636 123.63H755.075V133.63H853.636V123.63ZM848.636 91.8787V128.63H858.636V91.8787H848.636ZM835.622 96.8787H853.636V86.8787H835.622V96.8787ZM830.622 -56.7978V91.8787H840.622V-56.7978H830.622ZM547.095 -51.7978L835.622 -51.7978L835.622 -61.7978L547.095 -61.7978L547.095 -51.7978ZM552.095 103.572V-56.7978H542.095V103.572H552.095ZM714.983 -200.474L813.543 -200.474L813.543 -210.474L714.983 -210.474L714.983 -200.474ZM709.983 -217.168V-205.474H719.983V-217.168H709.983ZM659.02 -212.168L714.983 -212.168L714.983 -222.168L659.02 -222.168L659.02 -212.168ZM654.02 -253.919L654.02 -217.168L664.02 -217.168L664.02 -253.919L654.02 -253.919ZM788.293 -258.919L659.02 -258.919L659.02 -248.919L788.293 -248.919L788.293 -258.919ZM793.293 -242.226V-253.919H783.293V-242.226H793.293ZM813.543 -247.226L788.293 -247.226L788.293 -237.226L813.543 -237.226L813.543 -247.226ZM818.543 -205.474V-242.226H808.543V-205.474H818.543ZM674.89 -126.971L816.049 -126.971L816.049 -136.971L674.89 -136.971L674.89 -126.971ZM669.89 -168.723V-131.971H679.89V-168.723H669.89ZM816.049 -173.723L674.89 -173.723L674.89 -163.723L816.049 -163.723L816.049 -173.723ZM821.049 -131.971V-168.723H811.049V-131.971H821.049ZM719.159 -88.5261H677.396V-78.5261H719.159V-88.5261ZM714.159 -120.278V-83.5261H724.159V-120.278H714.159ZM677.396 -115.278H719.159V-125.278H677.396V-115.278ZM682.396 -83.5261V-120.278H672.396V-83.5261H682.396ZM278.965 171.228V78.5143H268.965V171.228H278.965ZM113.595 176.228H273.965V166.228H113.595V176.228ZM108.595 44.2686V171.228H118.595V44.2686H108.595ZM236.379 39.2686H113.595V49.2686H236.379V39.2686ZM231.379 -70.9972V44.2686H241.379V-70.9972H231.379ZM396.749 -75.9972H236.379V-65.9972H396.749V-75.9972ZM401.749 -14.0002V-70.9972H391.749V-14.0002H401.749ZM486.197 -19.0002L396.749 -19.0002L396.749 -9.00023L486.197 -9.00024L486.197 -19.0002ZM491.197 -2.30661V-14.0002H481.197V-2.30661H491.197ZM511.448 -7.30661H486.197V2.69339H511.448V-7.30661ZM516.448 34.4448V-2.30661H506.448V34.4448H516.448ZM412.887 39.4448H511.448V29.4448H412.887V39.4448ZM407.887 22.7512V34.4448H417.887V22.7512H407.887ZM396.749 27.7512H412.887V17.7512H396.749V27.7512ZM401.749 78.5143V22.7512H391.749V78.5143H401.749ZM273.965 83.5143L396.749 83.5143L396.749 73.5143L273.965 73.5143L273.965 83.5143ZM-30.0809 25.8929L-30.0809 -72.6678L-40.0809 -72.6678L-40.0809 25.8929L-30.0809 25.8929ZM-46.7746 30.8929H-35.0809V20.8929H-46.7746V30.8929ZM-41.7746 81.8553V25.8929H-51.7746V81.8553H-41.7746ZM-83.526 86.8553L-46.7746 86.8553L-46.7746 76.8553L-83.526 76.8553L-83.526 86.8553ZM-88.526 -47.4169L-88.526 81.8553L-78.526 81.8553L-78.526 -47.4169L-88.526 -47.4169ZM-71.8324 -52.4169H-83.526V-42.4169H-71.8324V-52.4169ZM-76.8324 -72.6678L-76.8324 -47.4169L-66.8324 -47.4169L-66.8324 -72.6678L-76.8324 -72.6678ZM-35.0809 -77.6678H-71.8324V-67.6678H-35.0809V-77.6678ZM43.422 65.9854L43.422 -75.1736L33.422 -75.1736L33.422 65.9854L43.422 65.9854ZM1.67053 70.9854H38.422V60.9854H1.67053V70.9854ZM-3.32946 -75.1736L-3.32947 65.9854L6.67053 65.9854L6.67054 -75.1736L-3.32946 -75.1736ZM38.422 -80.1736H1.67054V-70.1736H38.422V-80.1736ZM81.867 21.7166V63.4796H91.867V21.7166H81.867ZM50.1156 26.7166H86.867V16.7166H50.1156V26.7166ZM55.1156 63.4796V21.7166H45.1156V63.4796H55.1156ZM86.867 58.4796H50.1156V68.4796H86.867V58.4796ZM533.526 338.491H245V348.491H533.526V338.491ZM528.526 183.121V343.491H538.526V183.121H528.526ZM245 188.121L533.526 188.121L533.526 178.121L245 178.121L245 188.121ZM250 343.491V183.121H240V343.491H250ZM870.714 326.587V437.676H880.714V326.587H870.714ZM1008.99 321.587L875.714 321.587L875.714 331.587L1008.99 331.587L1008.99 321.587ZM1003.99 191.274V326.587H1013.99V191.274H1003.99ZM848.624 196.274L1008.99 196.274L1008.99 186.274L848.624 186.274L848.624 196.274ZM853.624 277.306V191.274H843.624V277.306H853.624ZM587.188 282.306H848.624V272.306H587.188V282.306ZM592.188 437.676V277.306H582.188V437.676H592.188ZM875.714 432.676H587.188V442.676H875.714V432.676ZM1145 364V150H1135V364H1145ZM1218 359H1140V369H1218V359ZM1213 150V364H1223V150H1213ZM1140 155H1218V145H1140V155ZM1079.17 166.216V307.375H1089.17V166.216H1079.17ZM1120.92 161.216H1084.17V171.216H1120.92V161.216ZM1125.92 307.375V166.216H1115.92V307.375H1125.92ZM1084.17 312.375H1120.92V302.375H1084.17V312.375ZM1083 122V79.9999H1073V122H1083ZM1140 117H1078V127H1140V117ZM1135 79.9999V122H1145V79.9999H1135ZM1078 84.9999H1140V74.9999H1078V84.9999ZM759.252 245.578H717.489V255.578H759.252V245.578ZM754.252 213.827V250.578H764.252V213.827H754.252ZM717.489 218.827H759.252V208.827H717.489V218.827ZM722.489 250.578V213.827H712.489V250.578H722.489ZM1810.37 46.7861L1521.84 46.7861L1521.84 56.7861L1810.37 56.7861L1810.37 46.7861ZM1805.37 -85.3527V51.7861H1815.37V-85.3527H1805.37ZM1521.84 -80.3526L1810.37 -80.3527L1810.37 -90.3527L1521.84 -90.3526L1521.84 -80.3526ZM1526.84 51.7861V-85.3526H1516.84V51.7861H1526.84ZM1788.29 -217.492L1689.73 -217.492L1689.73 -207.492L1788.29 -207.492L1788.29 -217.492ZM1783.29 -243.919V-212.492H1793.29V-243.919H1783.29ZM1763.04 -238.919L1788.29 -238.919L1788.29 -248.919L1763.04 -248.919L1763.04 -238.919ZM1758.04 -253.919V-243.919H1768.04V-253.919H1758.04ZM1633.77 -248.919L1763.04 -248.919L1763.04 -258.919L1633.77 -258.919L1633.77 -248.919ZM1638.77 -222.491V-253.919H1628.77V-222.491H1638.77ZM1689.73 -227.491L1633.77 -227.491L1633.77 -217.491L1689.73 -217.491L1689.73 -227.491ZM1694.73 -212.492V-222.491H1684.73V-212.492H1694.73ZM1790.8 -154.636L1649.64 -154.636L1649.64 -144.636L1790.8 -144.636L1790.8 -154.636ZM1785.8 -181.064V-149.636H1795.8V-181.064H1785.8ZM1649.64 -176.064L1790.8 -176.064L1790.8 -186.064L1649.64 -186.064L1649.64 -176.064ZM1654.64 -149.636V-181.064H1644.64V-149.636H1654.64ZM1652.14 -103.209H1693.91V-113.209H1652.14V-103.209ZM1647.14 -139.637V-108.209H1657.14V-139.637H1647.14ZM1693.91 -144.637L1652.14 -144.637L1652.14 -134.637L1693.91 -134.637L1693.91 -144.637ZM1698.91 -108.209V-139.637H1688.91V-108.209H1698.91ZM1066.62 63.4795V21.7165H1056.62V63.4795H1066.62ZM1024.86 68.4795H1061.62V58.4795H1024.86V68.4795ZM1019.86 21.7165V63.4795H1029.86V21.7165H1019.86ZM1061.62 16.7165H1024.86V26.7165H1061.62V16.7165ZM1008.17 -75.1737V65.9853H1018.17V-75.1737H1008.17ZM976.419 -70.1737H1013.17V-80.1737H976.419V-70.1737ZM981.419 65.9853V-75.1737H971.419V65.9853H981.419ZM1013.17 60.9853H976.419V70.9853H1013.17V60.9853ZM944.668 25.8928V-72.6679H934.668V25.8928H944.668ZM927.974 30.8928H939.668V20.8928H927.974V30.8928ZM932.974 81.8552V25.8928H922.974V81.8552H932.974ZM891.223 86.8552H927.974V76.8552H891.223V86.8552ZM886.223 -47.417V81.8552H896.223V-47.417H886.223ZM902.916 -52.417H891.223V-42.417H902.916V-52.417ZM897.916 -72.6679V-47.417H907.916V-72.6679H897.916ZM939.668 -77.6679H902.916V-67.6679H939.668V-77.6679ZM1518 357H1261V367H1518V357ZM1513 74.0001V362H1523V74.0001H1513ZM1371.5 79.0001L1518 79.0001L1518 69.0001L1371.5 69.0001L1371.5 79.0001ZM1366.5 52.6215V74.0001H1376.5V52.6215H1366.5ZM1450.01 47.6215H1371.5V57.6215H1450.01V47.6215ZM1445.01 15.8701V52.6215H1455.01V15.8701H1445.01ZM1424.76 20.8701H1450.01V10.8701H1424.76V20.8701ZM1419.76 4.17639V15.8701H1429.76V4.17639H1419.76ZM1371.5 9.17639H1424.76V-0.823608H1371.5V9.17639ZM1366.5 -70.9972V4.17639H1376.5V-70.9972H1366.5ZM1211.13 -65.9972H1371.5V-75.9972H1211.13V-65.9972ZM1216.13 78.5144V-70.9972H1206.13V78.5144H1216.13ZM1261 73.5144H1211.13V83.5144H1261V73.5144ZM1266 362L1266 78.5144L1256 78.5144L1256 362L1266 362ZM2160.82 366.668H2449.34V356.668H2160.82V366.668ZM2155.82 304.87V361.668H2165.82V304.87H2155.82ZM2132.42 309.87H2160.82V299.87H2132.42V309.87ZM2127.42 206.309V304.87H2137.42V206.309H2127.42ZM2144.11 201.309H2132.42V211.309H2144.11V201.309ZM2139.11 150.346V206.309H2149.11V150.346H2139.11ZM2180.86 145.346L2144.11 145.346L2144.11 155.346L2180.86 155.346L2180.86 145.346ZM2185.86 201.298V150.346H2175.86V201.298H2185.86ZM2449.34 196.298L2180.86 196.298L2180.86 206.298L2449.34 206.298L2449.34 196.298ZM2454.34 361.668V201.298H2444.34V361.668H2454.34ZM2328.71 57.6215H2427.27V47.6215H2328.71V57.6215ZM2323.71 40.9278V52.6215H2333.71V40.9278H2323.71ZM2272.74 45.9279L2328.71 45.9278L2328.71 35.9278L2272.74 35.9279L2272.74 45.9279ZM2267.74 4.17642V40.9279H2277.74V4.17642H2267.74ZM2402.02 -0.823608L2272.74 -0.823578L2272.74 9.17642L2402.02 9.17639L2402.02 -0.823608ZM2407.02 15.8701V4.17639H2397.02V15.8701H2407.02ZM2427.27 10.8701H2402.02V20.8701H2427.27V10.8701ZM2432.27 52.6215V15.8701H2422.27V52.6215H2432.27ZM2288.61 131.124H2429.77V121.124H2288.61V131.124ZM2283.61 89.3729V126.124H2293.61V89.3729H2283.61ZM2429.77 84.3729H2288.61V94.3729H2429.77V84.3729ZM2434.77 126.124V89.3729H2424.77V126.124H2434.77ZM2332.88 169.569H2291.12V179.569H2332.88V169.569ZM2327.88 137.818V174.569H2337.88V137.818H2327.88ZM2291.12 142.818H2332.88V132.818H2291.12V142.818ZM2296.12 174.569V137.818H2286.12V174.569H2296.12ZM1828.37 91.8788V38.422H1818.37V91.8788H1828.37ZM1729.82 96.8788H1823.37V86.8788H1729.82V96.8788ZM1734.82 128.63V91.8788H1724.82V128.63H1734.82ZM1823.37 123.63H1729.82V133.63H1823.37V123.63ZM1828.37 165.382V128.63H1818.37V165.382H1828.37ZM1689.73 170.382H1823.37V160.382H1689.73V170.382ZM1694.73 191V165.382H1684.73V191H1694.73ZM1618 196H1689.73V186H1618V196ZM1623 277.307L1623 191L1613 191L1613 277.307L1623 277.307ZM1561.93 282.307H1618V272.307H1561.93V282.307ZM1566.93 437.677V277.307H1556.93V437.677H1566.93ZM1850.46 432.676L1561.93 432.677L1561.93 442.677L1850.46 442.676L1850.46 432.676ZM1845.46 386V437.676H1855.46V386H1845.46ZM1857 381H1850.46V391H1857V381ZM1852 326.587V386H1862V326.587H1852ZM1917.76 321.587H1857V331.587H1917.76V321.587ZM1912.76 162.876V326.587H1922.76V162.876H1912.76ZM1957.66 157.876H1917.76V167.876H1957.66V157.876ZM1952.66 126.124V162.876H1962.66V126.124H1952.66ZM1917.76 131.124H1957.66V121.124H1917.76V131.124ZM1912.76 38.422V126.124H1922.76V38.422H1912.76ZM1823.37 43.422H1917.76V33.422H1823.37V43.422ZM2063.92 307.375V166.217H2053.92V307.375H2063.92ZM2095.67 302.375H2058.92V312.375H2095.67V302.375ZM2090.67 166.217V307.375H2100.67V166.217H2090.67ZM2058.92 171.217H2095.67V161.217H2058.92V171.217ZM2005.47 168.722V210.485H2015.47V168.722H2005.47ZM2047.22 163.722H2010.47V173.722H2047.22V163.722ZM2052.22 210.485V168.722H2042.22V210.485H2052.22ZM2010.47 215.485H2047.22V205.485H2010.47V215.485ZM2073.94 91.8784V-28.3991H2063.94V91.8784H2073.94ZM2175.02 86.8784H2068.94V96.8784H2175.02V86.8784ZM2170.02 -28.3991V91.8784H2180.02V-28.3991H2170.02ZM2068.94 -23.3991H2175.02V-33.3991H2068.94V-23.3991Z" fill="black" mask="url(#path-5-inside-2_3615_642)"/>
<mask id="path-7-inside-3_3615_642" fill="white">
<path fill-rule="evenodd" clip-rule="evenodd" d="M3106.62 103.572L3258.64 103.572V116.936L3314.6 116.936V128.63H3413.16V91.8786H3395.15V-56.7978L3106.62 -56.7978V103.572ZM3373.07 -205.474L3274.51 -205.474V-217.168L3218.55 -217.168L3218.55 -253.919L3347.82 -253.919V-242.226L3373.07 -242.226V-205.474ZM3375.58 -131.971L3234.42 -131.971V-168.723L3375.58 -168.723V-131.971ZM3236.92 -83.5261H3278.69V-120.278H3236.92V-83.5261ZM2833.49 78.5143L2833.49 171.228H2673.12L2673.12 44.2686H2795.9V-70.9972H2956.27V-14.0002L3045.72 -14.0002V-2.30661H3070.97V34.4448H2972.41V22.7512H2956.27V78.5143L2833.49 78.5143ZM2524.45 -72.6678L2524.45 25.8928H2512.75L2512.75 81.8553L2476 81.8553L2476 -47.4169H2487.69L2487.69 -72.6678H2524.45ZM2597.95 -75.1736L2597.95 65.9853H2561.2L2561.2 -75.1736H2597.95ZM2646.39 63.4796V21.7165H2609.64V63.4796H2646.39ZM2804.53 343.491H3093.05V183.121L2804.53 183.121V343.491ZM3435.24 437.676V326.587H3568.52V191.274H3408.15V277.306H3146.71V437.676H3435.24ZM3699.53 150V364H3777.53V150H3699.53ZM3643.69 307.375V166.216H3680.45V307.375H3643.69ZM3637.53 80V122H3699.53V80H3637.53ZM3277.01 250.578H3318.78V213.827H3277.01V250.578ZM4081.37 51.7862L4369.9 51.7861V-85.3527L4081.37 -85.3526V51.7862ZM4249.26 -212.492L4347.82 -212.492V-243.919L4322.57 -243.919V-253.919L4193.3 -253.919V-222.491L4249.26 -222.491V-212.492ZM4209.17 -149.636L4350.32 -149.636V-181.064L4209.17 -181.064V-149.636ZM4253.43 -108.209H4211.67V-139.637L4253.43 -139.637V-108.209ZM3621.14 21.7165V63.4795L3584.39 63.4795V21.7165H3621.14ZM3572.7 65.9853V-75.1737H3535.95V65.9853H3572.7ZM3499.19 -72.6679V25.8928H3487.5V81.8552H3450.75V-47.417H3462.44V-72.6679H3499.19ZM3820.53 362H4077.53V74.0001L3931.02 74.0001V52.6215H4009.54V15.8701H3984.29V4.17642H3931.02V-70.9971H3770.65V78.5144H3820.53V362ZM5008.87 361.668H4720.34V304.87H4691.95V206.309H4703.64V150.346L4740.39 150.346V201.298L5008.87 201.298V361.668ZM4986.79 52.6215H4888.23V40.9279L4832.27 40.9279V4.17645L4961.54 4.17642V15.8701H4986.79V52.6215ZM4989.3 126.124H4848.14V89.373H4989.3V126.124ZM4850.64 174.569H4892.41V137.818H4850.64V174.569ZM4382.9 38.422V91.8787L4289.35 91.8787V128.63L4382.9 128.63V165.382L4249.26 165.382V191H4177.53V277.306H4121.46V437.676H4409.99V386H4416.53V326.587H4477.28V162.876H4517.18V126.124H4477.28V38.422H4382.9ZM4618.44 166.217V307.376H4655.19V166.217H4618.44ZM4570 210.485V168.722H4606.75V210.485H4570ZM4628.47 -28.3991V91.8784H4734.54V-28.3991H4628.47Z"/>
</mask>
<path fill-rule="evenodd" clip-rule="evenodd" d="M3106.62 103.572L3258.64 103.572V116.936L3314.6 116.936V128.63H3413.16V91.8786H3395.15V-56.7978L3106.62 -56.7978V103.572ZM3373.07 -205.474L3274.51 -205.474V-217.168L3218.55 -217.168L3218.55 -253.919L3347.82 -253.919V-242.226L3373.07 -242.226V-205.474ZM3375.58 -131.971L3234.42 -131.971V-168.723L3375.58 -168.723V-131.971ZM3236.92 -83.5261H3278.69V-120.278H3236.92V-83.5261ZM2833.49 78.5143L2833.49 171.228H2673.12L2673.12 44.2686H2795.9V-70.9972H2956.27V-14.0002L3045.72 -14.0002V-2.30661H3070.97V34.4448H2972.41V22.7512H2956.27V78.5143L2833.49 78.5143ZM2524.45 -72.6678L2524.45 25.8928H2512.75L2512.75 81.8553L2476 81.8553L2476 -47.4169H2487.69L2487.69 -72.6678H2524.45ZM2597.95 -75.1736L2597.95 65.9853H2561.2L2561.2 -75.1736H2597.95ZM2646.39 63.4796V21.7165H2609.64V63.4796H2646.39ZM2804.53 343.491H3093.05V183.121L2804.53 183.121V343.491ZM3435.24 437.676V326.587H3568.52V191.274H3408.15V277.306H3146.71V437.676H3435.24ZM3699.53 150V364H3777.53V150H3699.53ZM3643.69 307.375V166.216H3680.45V307.375H3643.69ZM3637.53 80V122H3699.53V80H3637.53ZM3277.01 250.578H3318.78V213.827H3277.01V250.578ZM4081.37 51.7862L4369.9 51.7861V-85.3527L4081.37 -85.3526V51.7862ZM4249.26 -212.492L4347.82 -212.492V-243.919L4322.57 -243.919V-253.919L4193.3 -253.919V-222.491L4249.26 -222.491V-212.492ZM4209.17 -149.636L4350.32 -149.636V-181.064L4209.17 -181.064V-149.636ZM4253.43 -108.209H4211.67V-139.637L4253.43 -139.637V-108.209ZM3621.14 21.7165V63.4795L3584.39 63.4795V21.7165H3621.14ZM3572.7 65.9853V-75.1737H3535.95V65.9853H3572.7ZM3499.19 -72.6679V25.8928H3487.5V81.8552H3450.75V-47.417H3462.44V-72.6679H3499.19ZM3820.53 362H4077.53V74.0001L3931.02 74.0001V52.6215H4009.54V15.8701H3984.29V4.17642H3931.02V-70.9971H3770.65V78.5144H3820.53V362ZM5008.87 361.668H4720.34V304.87H4691.95V206.309H4703.64V150.346L4740.39 150.346V201.298L5008.87 201.298V361.668ZM4986.79 52.6215H4888.23V40.9279L4832.27 40.9279V4.17645L4961.54 4.17642V15.8701H4986.79V52.6215ZM4989.3 126.124H4848.14V89.373H4989.3V126.124ZM4850.64 174.569H4892.41V137.818H4850.64V174.569ZM4382.9 38.422V91.8787L4289.35 91.8787V128.63L4382.9 128.63V165.382L4249.26 165.382V191H4177.53V277.306H4121.46V437.676H4409.99V386H4416.53V326.587H4477.28V162.876H4517.18V126.124H4477.28V38.422H4382.9ZM4618.44 166.217V307.376H4655.19V166.217H4618.44ZM4570 210.485V168.722H4606.75V210.485H4570ZM4628.47 -28.3991V91.8784H4734.54V-28.3991H4628.47Z" fill="#FF00FF"/>
<path d="M3258.64 103.572H3263.64V98.5721L3258.64 98.5721L3258.64 103.572ZM3106.62 103.572H3101.62V108.572L3106.62 108.572L3106.62 103.572ZM3258.64 116.936H3253.64V121.936L3258.64 121.936L3258.64 116.936ZM3314.6 116.936H3319.6V111.936L3314.6 111.936L3314.6 116.936ZM3314.6 128.63H3309.6V133.63H3314.6V128.63ZM3413.16 128.63V133.63H3418.16V128.63H3413.16ZM3413.16 91.8786H3418.16V86.8786H3413.16V91.8786ZM3395.15 91.8786H3390.15V96.8786H3395.15V91.8786ZM3395.15 -56.7978H3400.15V-61.7978L3395.15 -61.7978L3395.15 -56.7978ZM3106.62 -56.7978L3106.62 -61.7978L3101.62 -61.7978V-56.7978H3106.62ZM3274.51 -205.474H3269.51V-200.474L3274.51 -200.474L3274.51 -205.474ZM3373.07 -205.474L3373.07 -200.474L3378.07 -200.474V-205.474H3373.07ZM3274.51 -217.168H3279.51V-222.168L3274.51 -222.168L3274.51 -217.168ZM3218.55 -217.168L3213.55 -217.168L3213.55 -212.168L3218.55 -212.168L3218.55 -217.168ZM3218.55 -253.919L3218.55 -258.919L3213.55 -258.919L3213.55 -253.919L3218.55 -253.919ZM3347.82 -253.919H3352.82V-258.919L3347.82 -258.919L3347.82 -253.919ZM3347.82 -242.226H3342.82V-237.226L3347.82 -237.226L3347.82 -242.226ZM3373.07 -242.226H3378.07V-247.226L3373.07 -247.226L3373.07 -242.226ZM3234.42 -131.971H3229.42V-126.971L3234.42 -126.971L3234.42 -131.971ZM3375.58 -131.971L3375.58 -126.971L3380.58 -126.971V-131.971H3375.58ZM3234.42 -168.723L3234.42 -173.723L3229.42 -173.723V-168.723H3234.42ZM3375.58 -168.723H3380.58V-173.723L3375.58 -173.723L3375.58 -168.723ZM3278.69 -83.5261V-78.5261H3283.69V-83.5261H3278.69ZM3236.92 -83.5261H3231.92V-78.5261H3236.92V-83.5261ZM3278.69 -120.278H3283.69V-125.278H3278.69V-120.278ZM3236.92 -120.278V-125.278H3231.92V-120.278H3236.92ZM2833.49 171.228V176.228H2838.49L2838.49 171.228L2833.49 171.228ZM2833.49 78.5143L2833.49 73.5143L2828.49 73.5143L2828.49 78.5143L2833.49 78.5143ZM2673.12 171.228L2668.12 171.228L2668.12 176.228H2673.12V171.228ZM2673.12 44.2686V39.2686H2668.12L2668.12 44.2686L2673.12 44.2686ZM2795.9 44.2686V49.2686H2800.9V44.2686H2795.9ZM2795.9 -70.9972V-75.9972H2790.9V-70.9972H2795.9ZM2956.27 -70.9972H2961.27V-75.9972H2956.27V-70.9972ZM2956.27 -14.0002H2951.27V-9.00023L2956.27 -9.00023L2956.27 -14.0002ZM3045.72 -14.0002H3050.72V-19.0002L3045.72 -19.0002L3045.72 -14.0002ZM3045.72 -2.30661H3040.72V2.69339H3045.72V-2.30661ZM3070.97 -2.30661H3075.97V-7.30661H3070.97V-2.30661ZM3070.97 34.4448V39.4448H3075.97V34.4448H3070.97ZM2972.41 34.4448H2967.41V39.4448H2972.41V34.4448ZM2972.41 22.7512H2977.41V17.7512H2972.41V22.7512ZM2956.27 22.7512V17.7512H2951.27V22.7512H2956.27ZM2956.27 78.5143L2956.27 83.5143L2961.27 83.5143V78.5143H2956.27ZM2524.45 25.8928V30.8928H2529.45L2529.45 25.8928L2524.45 25.8928ZM2524.45 -72.6678L2529.45 -72.6678L2529.45 -77.6678H2524.45V-72.6678ZM2512.75 25.8928V20.8928H2507.75L2507.75 25.8928L2512.75 25.8928ZM2512.75 81.8553L2512.75 86.8553L2517.75 86.8553L2517.75 81.8553L2512.75 81.8553ZM2476 81.8553L2471 81.8553L2471 86.8552L2476 86.8553L2476 81.8553ZM2476 -47.4169V-52.4169H2471L2471 -47.4169L2476 -47.4169ZM2487.69 -47.4169V-42.4169H2492.69L2492.69 -47.4169L2487.69 -47.4169ZM2487.69 -72.6678V-77.6678H2482.69L2482.69 -72.6678L2487.69 -72.6678ZM2597.95 65.9853V70.9853H2602.95L2602.95 65.9853L2597.95 65.9853ZM2597.95 -75.1736L2602.95 -75.1736L2602.95 -80.1736H2597.95V-75.1736ZM2561.2 65.9853L2556.2 65.9853L2556.2 70.9853H2561.2V65.9853ZM2561.2 -75.1736V-80.1736H2556.2L2556.2 -75.1736L2561.2 -75.1736ZM2646.39 21.7165H2651.39V16.7165H2646.39V21.7165ZM2646.39 63.4796V68.4796H2651.39V63.4796H2646.39ZM2609.64 21.7165V16.7165H2604.64V21.7165H2609.64ZM2609.64 63.4796H2604.64V68.4796H2609.64V63.4796ZM3093.05 343.491V348.491H3098.05V343.491H3093.05ZM2804.53 343.491H2799.53V348.491H2804.53V343.491ZM3093.05 183.121H3098.05V178.121L3093.05 178.121L3093.05 183.121ZM2804.53 183.121L2804.53 178.121L2799.53 178.121V183.121H2804.53ZM3435.24 326.587V321.587H3430.24V326.587H3435.24ZM3435.24 437.676V442.676H3440.24V437.676H3435.24ZM3568.52 326.587V331.587H3573.52V326.587H3568.52ZM3568.52 191.274H3573.52V186.274H3568.52V191.274ZM3408.15 191.274V186.274H3403.15V191.274H3408.15ZM3408.15 277.306V282.306H3413.15V277.306H3408.15ZM3146.71 277.306V272.306H3141.71V277.306H3146.71ZM3146.71 437.676H3141.71V442.676H3146.71V437.676ZM3699.53 364H3694.53V369H3699.53V364ZM3699.53 150V145H3694.53V150H3699.53ZM3777.53 364V369H3782.53V364H3777.53ZM3777.53 150H3782.53V145H3777.53V150ZM3643.69 166.216V161.216H3638.69V166.216H3643.69ZM3643.69 307.375H3638.69V312.375H3643.69V307.375ZM3680.45 166.216H3685.45V161.216H3680.45V166.216ZM3680.45 307.375V312.375H3685.45V307.375H3680.45ZM3637.53 122H3632.53V127H3637.53V122ZM3637.53 80V75H3632.53V80H3637.53ZM3699.53 122V127H3704.53V122H3699.53ZM3699.53 80H3704.53V75H3699.53V80ZM3318.78 250.578V255.578H3323.78V250.578H3318.78ZM3277.01 250.578H3272.01V255.578H3277.01V250.578ZM3318.78 213.827H3323.78V208.827H3318.78V213.827ZM3277.01 213.827V208.827H3272.01V213.827H3277.01ZM4369.9 51.7861L4369.9 56.7861L4374.9 56.7861V51.7861H4369.9ZM4081.37 51.7862H4076.37V56.7862L4081.37 56.7862L4081.37 51.7862ZM4369.9 -85.3527H4374.9V-90.3527L4369.9 -90.3527L4369.9 -85.3527ZM4081.37 -85.3526L4081.37 -90.3526L4076.37 -90.3526V-85.3526H4081.37ZM4347.82 -212.492L4347.82 -207.492L4352.82 -207.492V-212.492H4347.82ZM4249.26 -212.492H4244.26V-207.492L4249.26 -207.492L4249.26 -212.492ZM4347.82 -243.919H4352.82V-248.919L4347.82 -248.919L4347.82 -243.919ZM4322.57 -243.919H4317.57V-238.919L4322.57 -238.919L4322.57 -243.919ZM4322.57 -253.919H4327.57V-258.919L4322.57 -258.919L4322.57 -253.919ZM4193.3 -253.919L4193.3 -258.919L4188.3 -258.919V-253.919H4193.3ZM4193.3 -222.491H4188.3V-217.491L4193.3 -217.491L4193.3 -222.491ZM4249.26 -222.491H4254.26V-227.491L4249.26 -227.491L4249.26 -222.491ZM4350.32 -149.636L4350.32 -144.636L4355.32 -144.636V-149.636H4350.32ZM4209.17 -149.636H4204.17V-144.636L4209.17 -144.636L4209.17 -149.636ZM4350.32 -181.064H4355.32V-186.064L4350.32 -186.064L4350.32 -181.064ZM4209.17 -181.064L4209.17 -186.064L4204.17 -186.064V-181.064H4209.17ZM4211.67 -108.209H4206.67V-103.209H4211.67V-108.209ZM4253.43 -108.209V-103.209H4258.43V-108.209H4253.43ZM4211.67 -139.637L4211.67 -144.637L4206.67 -144.637V-139.637H4211.67ZM4253.43 -139.637H4258.43V-144.637L4253.43 -144.637L4253.43 -139.637ZM3621.14 63.4795L3621.14 68.4795L3626.14 68.4796V63.4795H3621.14ZM3621.14 21.7165H3626.14V16.7165H3621.14V21.7165ZM3584.39 63.4795H3579.39V68.4795L3584.39 68.4795L3584.39 63.4795ZM3584.39 21.7165V16.7165H3579.39V21.7165H3584.39ZM3572.7 -75.1737H3577.7V-80.1737H3572.7V-75.1737ZM3572.7 65.9853V70.9853H3577.7V65.9853H3572.7ZM3535.95 -75.1737V-80.1737H3530.95V-75.1737H3535.95ZM3535.95 65.9853H3530.95V70.9853H3535.95V65.9853ZM3499.19 25.8928V30.8928H3504.19V25.8928H3499.19ZM3499.19 -72.6679H3504.19V-77.6679H3499.19V-72.6679ZM3487.5 25.8928V20.8928H3482.5V25.8928H3487.5ZM3487.5 81.8552V86.8552H3492.5V81.8552H3487.5ZM3450.75 81.8552H3445.75V86.8552H3450.75V81.8552ZM3450.75 -47.417V-52.417H3445.75V-47.417H3450.75ZM3462.44 -47.417V-42.417H3467.44V-47.417H3462.44ZM3462.44 -72.6679V-77.6679H3457.44V-72.6679H3462.44ZM4077.53 362V367H4082.53V362H4077.53ZM3820.53 362H3815.53V367H3820.53V362ZM4077.53 74.0001H4082.53V69.0001L4077.53 69.0001L4077.53 74.0001ZM3931.02 74.0001H3926.02V79.0001L3931.02 79.0001L3931.02 74.0001ZM3931.02 52.6215V47.6215H3926.02V52.6215H3931.02ZM4009.54 52.6215V57.6215H4014.54V52.6215H4009.54ZM4009.54 15.8701H4014.54V10.8701H4009.54V15.8701ZM3984.29 15.8701H3979.29V20.8701H3984.29V15.8701ZM3984.29 4.17642H3989.29V-0.823582H3984.29V4.17642ZM3931.02 4.17642H3926.02V9.17642H3931.02V4.17642ZM3931.02 -70.9971H3936.02V-75.9971H3931.02V-70.9971ZM3770.65 -70.9971V-75.9971H3765.65V-70.9971H3770.65ZM3770.65 78.5144H3765.65V83.5144H3770.65V78.5144ZM3820.53 78.5144H3825.53V73.5144H3820.53V78.5144ZM4720.34 361.668H4715.34V366.668H4720.34V361.668ZM5008.87 361.668V366.668H5013.87V361.668H5008.87ZM4720.34 304.87H4725.34V299.87H4720.34V304.87ZM4691.95 304.87H4686.95V309.87H4691.95V304.87ZM4691.95 206.309V201.309H4686.95V206.309H4691.95ZM4703.64 206.309V211.309H4708.64V206.309H4703.64ZM4703.64 150.346L4703.64 145.346L4698.64 145.346V150.346H4703.64ZM4740.39 150.346H4745.39V145.346L4740.39 145.346L4740.39 150.346ZM4740.39 201.298H4735.39V206.298L4740.39 206.298L4740.39 201.298ZM5008.87 201.298H5013.87V196.298L5008.87 196.298L5008.87 201.298ZM4888.23 52.6215H4883.23V57.6215H4888.23V52.6215ZM4986.79 52.6215V57.6215H4991.79V52.6215H4986.79ZM4888.23 40.9279H4893.23V35.9278L4888.23 35.9279L4888.23 40.9279ZM4832.27 40.9279H4827.27V45.9279L4832.27 45.9279L4832.27 40.9279ZM4832.27 4.17645L4832.27 -0.823552L4827.27 -0.82355V4.17645H4832.27ZM4961.54 4.17642H4966.54V-0.823583L4961.54 -0.823582L4961.54 4.17642ZM4961.54 15.8701H4956.54V20.8701H4961.54V15.8701ZM4986.79 15.8701H4991.79V10.8701H4986.79V15.8701ZM4848.14 126.124H4843.14V131.124H4848.14V126.124ZM4989.3 126.124V131.124H4994.3V126.124H4989.3ZM4848.14 89.373V84.373H4843.14V89.373H4848.14ZM4989.3 89.373H4994.3V84.373H4989.3V89.373ZM4892.41 174.569V179.569H4897.41V174.569H4892.41ZM4850.64 174.569H4845.64V179.569H4850.64V174.569ZM4892.41 137.818H4897.41V132.818H4892.41V137.818ZM4850.64 137.818V132.818H4845.64V137.818H4850.64ZM4382.9 91.8787L4382.9 96.8787L4387.9 96.8787V91.8787H4382.9ZM4382.9 38.422V33.422H4377.9V38.422H4382.9ZM4289.35 91.8787L4289.35 86.8787L4284.35 86.8787V91.8787H4289.35ZM4289.35 128.63H4284.35V133.63L4289.35 133.63L4289.35 128.63ZM4382.9 128.63H4387.9V123.63L4382.9 123.63L4382.9 128.63ZM4382.9 165.382L4382.9 170.382L4387.9 170.382V165.382H4382.9ZM4249.26 165.382L4249.26 160.382L4244.26 160.382V165.382H4249.26ZM4249.26 191V196H4254.26V191H4249.26ZM4177.53 191V186H4172.53V191H4177.53ZM4177.53 277.306V282.306H4182.53V277.306H4177.53ZM4121.46 277.306V272.306H4116.46V277.306H4121.46ZM4121.46 437.676H4116.46V442.676H4121.46V437.676ZM4409.99 437.676V442.676H4414.99V437.676H4409.99ZM4409.99 386V381H4404.99V386H4409.99ZM4416.53 386V391H4421.53V386H4416.53ZM4416.53 326.587V321.587H4411.53V326.587H4416.53ZM4477.28 326.587V331.587H4482.28V326.587H4477.28ZM4477.28 162.876V157.876H4472.28V162.876H4477.28ZM4517.18 162.876V167.876H4522.18V162.876H4517.18ZM4517.18 126.124H4522.18V121.124H4517.18V126.124ZM4477.28 126.124H4472.28V131.124H4477.28V126.124ZM4477.28 38.422H4482.28V33.422H4477.28V38.422ZM4618.44 307.376H4613.44V312.376H4618.44V307.376ZM4618.44 166.217V161.217H4613.44V166.217H4618.44ZM4655.19 307.376V312.376H4660.19V307.376H4655.19ZM4655.19 166.217H4660.19V161.217H4655.19V166.217ZM4570 168.722V163.722H4565V168.722H4570ZM4570 210.485H4565V215.485H4570V210.485ZM4606.75 168.722H4611.75V163.722H4606.75V168.722ZM4606.75 210.485V215.485H4611.75V210.485H4606.75ZM4628.47 91.8784H4623.47V96.8784H4628.47V91.8784ZM4628.47 -28.3991V-33.3991H4623.47V-28.3991H4628.47ZM4734.54 91.8784V96.8784H4739.54V91.8784H4734.54ZM4734.54 -28.3991H4739.54V-33.3991H4734.54V-28.3991ZM3258.64 98.5721L3106.62 98.5722L3106.62 108.572L3258.64 108.572L3258.64 98.5721ZM3263.64 116.936V103.572H3253.64V116.936H3263.64ZM3314.6 111.936L3258.64 111.936L3258.64 121.936L3314.6 121.936L3314.6 111.936ZM3319.6 128.63V116.936H3309.6V128.63H3319.6ZM3413.16 123.63H3314.6V133.63H3413.16V123.63ZM3408.16 91.8786V128.63H3418.16V91.8786H3408.16ZM3395.15 96.8786H3413.16V86.8786H3395.15V96.8786ZM3390.15 -56.7978V91.8786H3400.15V-56.7978H3390.15ZM3106.62 -51.7978L3395.15 -51.7978L3395.15 -61.7978L3106.62 -61.7978L3106.62 -51.7978ZM3111.62 103.572V-56.7978H3101.62V103.572H3111.62ZM3274.51 -200.474L3373.07 -200.474L3373.07 -210.474L3274.51 -210.474L3274.51 -200.474ZM3269.51 -217.168V-205.474H3279.51V-217.168H3269.51ZM3218.55 -212.168L3274.51 -212.168L3274.51 -222.168L3218.55 -222.168L3218.55 -212.168ZM3213.55 -253.919L3213.55 -217.168L3223.55 -217.168L3223.55 -253.919L3213.55 -253.919ZM3347.82 -258.919L3218.55 -258.919L3218.55 -248.919L3347.82 -248.919L3347.82 -258.919ZM3352.82 -242.226V-253.919H3342.82V-242.226H3352.82ZM3373.07 -247.226L3347.82 -247.226L3347.82 -237.226L3373.07 -237.226L3373.07 -247.226ZM3378.07 -205.474V-242.226H3368.07V-205.474H3378.07ZM3234.42 -126.971L3375.58 -126.971L3375.58 -136.971L3234.42 -136.971L3234.42 -126.971ZM3229.42 -168.723V-131.971H3239.42V-168.723H3229.42ZM3375.58 -173.723L3234.42 -173.723L3234.42 -163.723L3375.58 -163.723L3375.58 -173.723ZM3380.58 -131.971V-168.723H3370.58V-131.971H3380.58ZM3278.69 -88.5261H3236.92V-78.5261H3278.69V-88.5261ZM3273.69 -120.278V-83.5261H3283.69V-120.278H3273.69ZM3236.92 -115.278H3278.69V-125.278H3236.92V-115.278ZM3241.92 -83.5261V-120.278H3231.92V-83.5261H3241.92ZM2838.49 171.228L2838.49 78.5143L2828.49 78.5143L2828.49 171.228L2838.49 171.228ZM2673.12 176.228H2833.49V166.228H2673.12V176.228ZM2668.12 44.2686L2668.12 171.228L2678.12 171.228L2678.12 44.2686L2668.12 44.2686ZM2795.9 39.2686H2673.12V49.2686H2795.9V39.2686ZM2790.9 -70.9972V44.2686H2800.9V-70.9972H2790.9ZM2956.27 -75.9972H2795.9V-65.9972H2956.27V-75.9972ZM2961.27 -14.0002V-70.9972H2951.27V-14.0002H2961.27ZM3045.72 -19.0002L2956.27 -19.0002L2956.27 -9.00023L3045.72 -9.00025L3045.72 -19.0002ZM3050.72 -2.30661V-14.0002H3040.72V-2.30661H3050.72ZM3070.97 -7.30661H3045.72V2.69339H3070.97V-7.30661ZM3075.97 34.4448V-2.30661H3065.97V34.4448H3075.97ZM2972.41 39.4448H3070.97V29.4448H2972.41V39.4448ZM2967.41 22.7512V34.4448H2977.41V22.7512H2967.41ZM2956.27 27.7512H2972.41V17.7512H2956.27V27.7512ZM2961.27 78.5143V22.7512H2951.27V78.5143H2961.27ZM2833.49 83.5143L2956.27 83.5143L2956.27 73.5143L2833.49 73.5143L2833.49 83.5143ZM2529.45 25.8928L2529.45 -72.6678L2519.45 -72.6678L2519.45 25.8928L2529.45 25.8928ZM2512.75 30.8928H2524.45V20.8928H2512.75V30.8928ZM2517.75 81.8553L2517.75 25.8928L2507.75 25.8928L2507.75 81.8553L2517.75 81.8553ZM2476 86.8553L2512.75 86.8553L2512.75 76.8553L2476 76.8553L2476 86.8553ZM2471 -47.4169L2471 81.8553L2481 81.8553L2481 -47.4169L2471 -47.4169ZM2487.69 -52.4169H2476V-42.4169H2487.69V-52.4169ZM2482.69 -72.6678L2482.69 -47.4169L2492.69 -47.4169L2492.69 -72.6678L2482.69 -72.6678ZM2524.45 -77.6678H2487.69V-67.6678H2524.45V-77.6678ZM2602.95 65.9853L2602.95 -75.1736L2592.95 -75.1736L2592.95 65.9853L2602.95 65.9853ZM2561.2 70.9853H2597.95V60.9853H2561.2V70.9853ZM2556.2 -75.1736L2556.2 65.9853L2566.2 65.9853L2566.2 -75.1736L2556.2 -75.1736ZM2597.95 -80.1736H2561.2V-70.1736H2597.95V-80.1736ZM2641.39 21.7165V63.4796H2651.39V21.7165H2641.39ZM2609.64 26.7165H2646.39V16.7165H2609.64V26.7165ZM2614.64 63.4796V21.7165H2604.64V63.4796H2614.64ZM2646.39 58.4796H2609.64V68.4796H2646.39V58.4796ZM3093.05 338.491H2804.53V348.491H3093.05V338.491ZM3088.05 183.121V343.491H3098.05V183.121H3088.05ZM2804.53 188.121L3093.05 188.121L3093.05 178.121L2804.53 178.121L2804.53 188.121ZM2809.53 343.491V183.121H2799.53V343.491H2809.53ZM3430.24 326.587V437.676H3440.24V326.587H3430.24ZM3568.52 321.587H3435.24V331.587H3568.52V321.587ZM3563.52 191.274V326.587H3573.52V191.274H3563.52ZM3408.15 196.274H3568.52V186.274H3408.15V196.274ZM3413.15 277.306V191.274H3403.15V277.306H3413.15ZM3146.71 282.306H3408.15V272.306H3146.71V282.306ZM3151.71 437.676V277.306H3141.71V437.676H3151.71ZM3435.24 432.676H3146.71V442.676H3435.24V432.676ZM3704.53 364V150H3694.53V364H3704.53ZM3777.53 359H3699.53V369H3777.53V359ZM3772.53 150V364H3782.53V150H3772.53ZM3699.53 155H3777.53V145H3699.53V155ZM3638.69 166.216V307.375H3648.69V166.216H3638.69ZM3680.45 161.216H3643.69V171.216H3680.45V161.216ZM3685.45 307.375V166.216H3675.45V307.375H3685.45ZM3643.69 312.375H3680.45V302.375H3643.69V312.375ZM3642.53 122V80H3632.53V122H3642.53ZM3699.53 117H3637.53V127H3699.53V117ZM3694.53 80V122H3704.53V80H3694.53ZM3637.53 85H3699.53V75H3637.53V85ZM3318.78 245.578H3277.01V255.578H3318.78V245.578ZM3313.78 213.827V250.578H3323.78V213.827H3313.78ZM3277.01 218.827H3318.78V208.827H3277.01V218.827ZM3282.01 250.578V213.827H3272.01V250.578H3282.01ZM4369.9 46.7861L4081.37 46.7862L4081.37 56.7862L4369.9 56.7861L4369.9 46.7861ZM4364.9 -85.3527V51.7861H4374.9V-85.3527H4364.9ZM4081.37 -80.3526L4369.9 -80.3527L4369.9 -90.3527L4081.37 -90.3526L4081.37 -80.3526ZM4086.37 51.7862V-85.3526H4076.37V51.7862H4086.37ZM4347.82 -217.492L4249.26 -217.492L4249.26 -207.492L4347.82 -207.492L4347.82 -217.492ZM4342.82 -243.919V-212.492H4352.82V-243.919H4342.82ZM4322.57 -238.919L4347.82 -238.919L4347.82 -248.919L4322.57 -248.919L4322.57 -238.919ZM4317.57 -253.919V-243.919H4327.57V-253.919H4317.57ZM4193.3 -248.919L4322.57 -248.919L4322.57 -258.919L4193.3 -258.919L4193.3 -248.919ZM4198.3 -222.491V-253.919H4188.3V-222.491H4198.3ZM4249.26 -227.491L4193.3 -227.491L4193.3 -217.491L4249.26 -217.491L4249.26 -227.491ZM4254.26 -212.492V-222.491H4244.26V-212.492H4254.26ZM4350.32 -154.636L4209.17 -154.636L4209.17 -144.636L4350.32 -144.636L4350.32 -154.636ZM4345.32 -181.064V-149.636H4355.32V-181.064H4345.32ZM4209.17 -176.064L4350.32 -176.064L4350.32 -186.064L4209.17 -186.064L4209.17 -176.064ZM4214.17 -149.636V-181.064H4204.17V-149.636H4214.17ZM4211.67 -103.209H4253.43V-113.209H4211.67V-103.209ZM4206.67 -139.637V-108.209H4216.67V-139.637H4206.67ZM4253.43 -144.637L4211.67 -144.637L4211.67 -134.637L4253.43 -134.637L4253.43 -144.637ZM4258.43 -108.209V-139.637H4248.43V-108.209H4258.43ZM3626.14 63.4795V21.7165H3616.14V63.4795H3626.14ZM3584.39 68.4795L3621.14 68.4795L3621.14 58.4795L3584.39 58.4795L3584.39 68.4795ZM3579.39 21.7165V63.4795H3589.39V21.7165H3579.39ZM3621.14 16.7165H3584.39V26.7165H3621.14V16.7165ZM3567.7 -75.1737V65.9853H3577.7V-75.1737H3567.7ZM3535.95 -70.1737H3572.7V-80.1737H3535.95V-70.1737ZM3540.95 65.9853V-75.1737H3530.95V65.9853H3540.95ZM3572.7 60.9853H3535.95V70.9853H3572.7V60.9853ZM3504.19 25.8928V-72.6679H3494.19V25.8928H3504.19ZM3487.5 30.8928H3499.19V20.8928H3487.5V30.8928ZM3492.5 81.8552V25.8928H3482.5V81.8552H3492.5ZM3450.75 86.8552H3487.5V76.8552H3450.75V86.8552ZM3445.75 -47.417V81.8552H3455.75V-47.417H3445.75ZM3462.44 -52.417H3450.75V-42.417H3462.44V-52.417ZM3457.44 -72.6679V-47.417H3467.44V-72.6679H3457.44ZM3499.19 -77.6679H3462.44V-67.6679H3499.19V-77.6679ZM4077.53 357H3820.53V367H4077.53V357ZM4072.53 74.0001V362H4082.53V74.0001H4072.53ZM3931.02 79.0001L4077.53 79.0001L4077.53 69.0001L3931.02 69.0001L3931.02 79.0001ZM3926.02 52.6215V74.0001H3936.02V52.6215H3926.02ZM4009.54 47.6215H3931.02V57.6215H4009.54V47.6215ZM4004.54 15.8701V52.6215H4014.54V15.8701H4004.54ZM3984.29 20.8701H4009.54V10.8701H3984.29V20.8701ZM3979.29 4.17642V15.8701H3989.29V4.17642H3979.29ZM3931.02 9.17642H3984.29V-0.823582H3931.02V9.17642ZM3926.02 -70.9971V4.17642H3936.02V-70.9971H3926.02ZM3770.65 -65.9971H3931.02V-75.9971H3770.65V-65.9971ZM3775.65 78.5144V-70.9971H3765.65V78.5144H3775.65ZM3820.53 73.5144H3770.65V83.5144H3820.53V73.5144ZM3825.53 362V78.5144H3815.53V362H3825.53ZM4720.34 366.668H5008.87V356.668H4720.34V366.668ZM4715.34 304.87V361.668H4725.34V304.87H4715.34ZM4691.95 309.87H4720.34V299.87H4691.95V309.87ZM4686.95 206.309V304.87H4696.95V206.309H4686.95ZM4703.64 201.309H4691.95V211.309H4703.64V201.309ZM4698.64 150.346V206.309H4708.64V150.346H4698.64ZM4740.39 145.346L4703.64 145.346L4703.64 155.346L4740.39 155.346L4740.39 145.346ZM4745.39 201.298V150.346H4735.39V201.298H4745.39ZM5008.87 196.298L4740.39 196.298L4740.39 206.298L5008.87 206.298L5008.87 196.298ZM5013.87 361.668V201.298H5003.87V361.668H5013.87ZM4888.23 57.6215H4986.79V47.6215H4888.23V57.6215ZM4883.23 40.9279V52.6215H4893.23V40.9279H4883.23ZM4832.27 45.9279L4888.23 45.9279L4888.23 35.9279L4832.27 35.9279L4832.27 45.9279ZM4827.27 4.17645V40.9279H4837.27V4.17645H4827.27ZM4961.54 -0.823582L4832.27 -0.823552L4832.27 9.17645L4961.54 9.17642L4961.54 -0.823582ZM4966.54 15.8701V4.17642H4956.54V15.8701H4966.54ZM4986.79 10.8701H4961.54V20.8701H4986.79V10.8701ZM4991.79 52.6215V15.8701H4981.79V52.6215H4991.79ZM4848.14 131.124H4989.3V121.124H4848.14V131.124ZM4843.14 89.373V126.124H4853.14V89.373H4843.14ZM4989.3 84.373H4848.14V94.373H4989.3V84.373ZM4994.3 126.124V89.373H4984.3V126.124H4994.3ZM4892.41 169.569H4850.64V179.569H4892.41V169.569ZM4887.41 137.818V174.569H4897.41V137.818H4887.41ZM4850.64 142.818H4892.41V132.818H4850.64V142.818ZM4855.64 174.569V137.818H4845.64V174.569H4855.64ZM4387.9 91.8787V38.422H4377.9V91.8787H4387.9ZM4289.35 96.8787L4382.9 96.8787L4382.9 86.8787L4289.35 86.8787L4289.35 96.8787ZM4294.35 128.63V91.8787H4284.35V128.63H4294.35ZM4382.9 123.63L4289.35 123.63L4289.35 133.63L4382.9 133.63L4382.9 123.63ZM4387.9 165.382V128.63H4377.9V165.382H4387.9ZM4249.26 170.382L4382.9 170.382L4382.9 160.382L4249.26 160.382L4249.26 170.382ZM4254.26 191V165.382H4244.26V191H4254.26ZM4177.53 196H4249.26V186H4177.53V196ZM4182.53 277.306V191H4172.53V277.306H4182.53ZM4121.46 282.306H4177.53V272.306H4121.46V282.306ZM4126.46 437.676V277.306H4116.46V437.676H4126.46ZM4409.99 432.676H4121.46V442.676H4409.99V432.676ZM4404.99 386V437.676H4414.99V386H4404.99ZM4416.53 381H4409.99V391H4416.53V381ZM4411.53 326.587V386H4421.53V326.587H4411.53ZM4477.28 321.587H4416.53V331.587H4477.28V321.587ZM4472.28 162.876V326.587H4482.28V162.876H4472.28ZM4517.18 157.876H4477.28V167.876H4517.18V157.876ZM4512.18 126.124V162.876H4522.18V126.124H4512.18ZM4477.28 131.124H4517.18V121.124H4477.28V131.124ZM4472.28 38.422V126.124H4482.28V38.422H4472.28ZM4382.9 43.422H4477.28V33.422H4382.9V43.422ZM4623.44 307.376V166.217H4613.44V307.376H4623.44ZM4655.19 302.376H4618.44V312.376H4655.19V302.376ZM4650.19 166.217V307.376H4660.19V166.217H4650.19ZM4618.44 171.217H4655.19V161.217H4618.44V171.217ZM4565 168.722V210.485H4575V168.722H4565ZM4606.75 163.722H4570V173.722H4606.75V163.722ZM4611.75 210.485V168.722H4601.75V210.485H4611.75ZM4570 215.485H4606.75V205.485H4570V215.485ZM4633.47 91.8784V-28.3991H4623.47V91.8784H4633.47ZM4734.54 86.8784H4628.47V96.8784H4734.54V86.8784ZM4729.54 -28.3991V91.8784H4739.54V-28.3991H4729.54ZM4628.47 -23.3991H4734.54V-33.3991H4628.47V-23.3991Z" fill="black" mask="url(#path-7-inside-3_3615_642)"/>
</g>
</svg>
